<svg xmlns="http://www.w3.org/2000/svg" viewBox="0 0 483.08 738.15">
  <path fill="#13385E" d="M477.26,392.43c0,119.82-147.87,251.55-236.25,256.22C143.28,641,5.19,503.76,5.19,393.71V6.19h472.08
	C477.26,6.19,477.69,230.12,477.26,392.43z M18.66,634.45c15.73-8.5,39.97-13.61,53.15-31.89c4.68,18.71-7.23,31.4-6.8,58.62
	l351.64-0.01c2.64-13.83-11.46-40.33-6.35-58.61c13.18,18.28,37,23.39,52.73,31.89c13.61,7.23,14.03,11.06,14.03,34.87
	c0,15.31,0,35.29,0,48.48c0,9.36-11.06,14.88-23.81,14.46H27.59c-12.76,0.43-23.39-5.1-23.39-14.46c0-13.18,0-32.74,0-48.48
	C4.2,646.36,4.2,641.26,18.66,634.45z" />
  <path fill="#9ADAF8" d="M447.72,661.24c-6.38,0-17.29,0-31.5,0c0.27-1.43,0.58-2.93,0.89-4.6c0.01,0.68,0.01,1.36,0,2.05
	c11.48-20.84,2.13-26.36,3.83-36.14c8.93,11.48,22.54,13.18,32.32,18.28C465.15,647.21,472.81,661.24,447.72,661.24z M364.66,456.59
	c12.75-12.32,21.67,0,19.12,9.35c0,0.42-0.42,0.85-0.42,1.27c-14.87,42.92-52.26,71.38-95.61,83.71c2.12,4.25,8.5,8.5,15.3,13.17
	c-33.99,5.52-61.19-2.12-73.08-6.37c-32.29-1.27-64.16-10.62-89.23-29.32c-26.77-14.87-35.69-31.02-47.59-55.66
	c-1.27-2.97-3.82-5.95-6.8-11.05c-1.7-3.4-2.12-9.35,6.8-6.37c8.07,2.55,18.27,4.67,21.67,0.42c0.42-0.85,0.42-1.27,0.42-1.7
	c-0.42-1.27,2.12-4.25,5.52-2.55c5.95-2.12,9.35-5.95,11.05-8.07c2.97,0.85,5.95,1.27,9.35,2.55c11.05,4.25,33.14,15.3,38.67,36.97
	c0-16.15-6.37-25.49-12.75-30.59c26.39,0.31,49.75,5.74,70.96,11.81v-15.89c6.31,2.82,11.45,6.33,14.87,8.99v11.3
	c2.29,0.69,4.56,1.38,6.8,2.06c8.07-0.85,26.77-2.55,48.44,0.42c-2.12,2.12-5.1,6.37-6.37,8.92c17.85,1.7,34.84-1.27,52.26-12.75
	c19.55-12.75-15.3-22.52-15.3-70.54c18.27,15.3,35.27,8.5,49.29,17.42c15.3-8.92,39.09-18.27,63.31-5.95
	c-26.34,8.07-45.89,29.32-60.76,49.29C394.41,441.3,375.71,429.82,364.66,456.59z M127.14,476.14c-2.55,0-4.67,2.12-4.67,4.25
	c0,2.12,2.12,3.82,4.67,3.82c2.55,0,4.67-1.7,4.67-3.82C131.81,478.26,129.69,476.14,127.14,476.14z M238.04,168.93h14.87v24.52
	h-14.87V168.93z M252.91,419.35h-14.87v-60.12c6.38,2.91,11.53,6.5,14.87,9.13V419.35z M238.04,271.47c6.46,3,11.62,6.67,14.87,9.28
	v51.23h-14.87V271.47z M241.01,130.26c0,0-28.89-15.3-60.34-4.67c-0.85-3.4-2.55-11.47-3.82-14.02c21.25-5.52,54.39-1.7,64.59,7.65
	c10.2-8.92,43.34-12.75,63.74-7.65c-1.27,2.55-2.97,10.62-3.82,14.02C270.33,114.96,241.01,130.26,241.01,130.26z M233.79,106.04
	c-3.4-2.55-8.5-5.1-15.3-5.95c10.62-20.4,11.47-27.62,14.87-62.46c3.82,2.12,5.95,5.1,8.07,8.92c0,1.27,0,7.22,0,7.22
	S231.24,76.72,233.79,106.04z M114.81,448.94c-2.55-0.85-8.5-2.55-15.3-2.55c-5.1,0-9.77-2.97-9.77-4.67c0.43-0.85,1.7-1.7,3.82-1.7
	c4.67-0.85,15.3,0,26.77,1.7C119.49,444.27,117.79,446.82,114.81,448.94z M29.86,640.83c9.36-5.1,23.39-6.8,32.32-18.71
	c1.67,9.59-7.28,14.7,3.2,34.94c0.17,1.44,0.42,2.84,0.78,4.18c-13.57,0-24.04,0-30.34,0C9.88,661.24,17.53,647.21,29.86,640.83z
	 M252.91,575.14h-14.87v-6.74c5.45,1.51,10.59,2.5,14.87,3.16V575.14z" />
  <path fill="#FFFFFF" d="M445.32,712.41l-1.56-5.63h-12.13l-1.64,5.63h-8.49l10.83-31.35h10.7l10.82,31.35H445.32z M438.74,690.41
	c-0.12-0.53-0.46-1.94-1.02-4.24c-0.61,2.3-0.95,3.71-1.09,4.24l-3.14,10.31h8.46L438.74,690.41z M411.82,712.41h-8.52v-23.93h-6.95
	v-7.42h22.49v7.42h-7.02V712.41z M383.78,436.62c-1.7-9.35,4.25-26.77,30.17-30.17C401.63,410.7,389.73,423.88,383.78,436.62z
	 M389.73,712.41h-8.63v-31.35h8.63V712.41z M328.97,511.83c-28.47,7.65-75.63,20.4-145.32,2.97c-18.7-4.67-62.46-16.15-80.31-39.09
	c-3.4-4.67-4.67-13.17-4.67-14.45c0-1.7,0.85-2.55,4.67-1.7c12.32,2.12,14.45-2.55,19.12-7.65c5.52-0.85,22.95-3.82,36.97,5.52
	c15.3,10.2,20.4,25.07,20.4,25.07s5.1-12.75-2.12-22.52c14.02-3.82,38.24,2.12,59.91,10.62c31.87,12.32,56.09,16.57,80.31,12.32
	c24.22-4.25,36.97-9.35,45.04-21.25c4.25-6.37,16.57-5.1,13.17,4.67C372.74,476.14,357.44,503.76,328.97,511.83z M127.14,476.14
	c-2.55,0-4.67,2.12-4.67,4.25c0,2.12,2.12,3.82,4.67,3.82c2.55,0,4.67-1.7,4.67-3.82C131.81,478.26,129.69,476.14,127.14,476.14z
	 M359.99,410.28c5.95,14.87,6.8,33.57,6.8,33.57S352.34,420.48,359.99,410.28z M344.69,406.45c6.8,10.2,16.57,41.22,16.57,41.22
	S339.59,424.3,344.69,406.45z M241.44,111.57c0-3.82,0-57.79,0-65.01c11.05-21.67,26.77-5.1,54.39-13.6
	c5.1,22.52,9.77,62.89,11.05,70.11C286.05,109.02,267.78,86.92,241.44,111.57z M241.38,46.64l-0.01-0.21
	c0.02,0.04,0.04,0.08,0.06,0.12c-0.03,0.13-0.05,0.28-0.08,0.42C241.37,46.85,241.38,46.73,241.38,46.64z M240.13,53.34
	c0.2-0.91,0.54-2.45,0.81-3.85c-0.21,1.4-0.36,2.59-0.36,2.59S240.42,52.52,240.13,53.34z M235.06,447.04
	c1.12,0.43,2.22,0.89,3.27,1.36v16.83c-1.08-0.31-2.18-0.62-3.27-0.92V447.04z M235.06,358.01h0.1c1.08,0.43,2.14,0.88,3.17,1.35
	v58.98h-3.27V358.01z M235.06,270.18c1.13,0.46,2.21,0.94,3.27,1.44v60.35h-3.27V270.18z M235.06,168.93h3.27v24.52h-3.27V168.93z
	 M221.5,100.45c5.23,0.99,9.32,2.98,12.28,5.05c0,0.04,0,0.07,0.01,0.11C229.49,102.86,225.42,101.27,221.5,100.45z M176,103.07
	c1.27-7.22,6.37-47.59,11.05-70.11c22.04,6.78,36.49-2.11,47.05,4.8c-3.39,34.72-4.25,41.96-14.85,62.31
	C203.62,97.92,190.45,107.33,176,103.07z M114.25,712.41h-8.5l-1.55-5.63H92.07l-1.65,5.63h-8.48l10.8-31.35h10.7L114.25,712.41z
	 M99.19,690.41c-0.14-0.53-0.51-1.94-1.05-4.24c-0.57,2.3-0.96,3.71-1.1,4.24l-3.17,10.31h8.52L99.19,690.41z M67.9,681.06h8.67
	v31.35H67.9V681.06z M43.36,712.41l-13.15-31.35h9.05l6.29,17.53c0.14,0.39,0.48,1.79,1.02,4.22c0.6-2.44,0.98-3.83,1.14-4.22
	l6.14-17.53h9.11l-13.12,31.35H43.36z M146.5,698.59c0.14,0.39,0.45,1.79,1.04,4.22c0.55-2.44,0.96-3.83,1.08-4.22l6.24-17.53h9.05
	l-13.11,31.35h-6.49l-13.16-31.35h9.09L146.5,698.59z M187.83,687.96h-10.89v5.44h10.26v6.68h-10.26v5.35h10.89v6.99h-19.19v-31.35
	h19.19V687.96z M205.11,681.06c4.32,0,7.67,0.04,10.37,2.13c2.24,1.76,3.47,4.42,3.47,7.68c0,4.83-2.44,7.93-6.99,8.92l8.54,12.63
	h-9.65l-7.19-12.28v12.28h-8.01v-31.35h8.93C204.77,681.06,204.93,681.06,205.11,681.06z M203.65,695.89h1.61
	c3.56,0,5.28-1.13,5.28-3.92c0-3.27-1.61-4.27-5.18-4.27h-1.72V695.89z M234.77,712.41h-8.64v-31.35h8.64V712.41z M238.34,575.14
	h-3.27v-7.61c1.1,0.34,2.19,0.65,3.27,0.95V575.14z M263.88,688.47h-7.02v23.93h-8.52v-23.93h-6.98v-7.42h22.52V688.47z
	 M288.02,681.06l10.82,31.35h-8.46l-1.61-5.63h-12.11l-1.6,5.63h-8.52l10.83-31.35H288.02z M287,700.72l-3.2-10.31
	c-0.13-0.53-0.48-1.94-1.05-4.24c-0.55,2.3-0.97,3.71-1.11,4.24l-3.14,10.31H287z M312.9,706.55c2.32,0,3.89-1.35,3.89-3.21
	c0-2.51-1.73-3.27-5.28-4.18c-5.62-1.47-8.37-3.77-8.37-8.63c0-5.83,4.23-10.17,10.79-10.17c3.51,0,6.58,0.91,9.26,2.79l-2.66,6.12
	c-1.97-1.65-4.06-2.48-5.99-2.48c-2.1,0-3.49,1.14-3.49,2.6c0,2.27,2.2,2.74,5,3.5c5.55,1.48,8.65,3.51,8.65,9.32
	c0,6.46-4.66,11.02-11.99,11.02c-4.43,0-7.78-1.39-11.13-4.6l3.83-6.33C307.94,705.17,310.41,706.55,312.9,706.55z M358.74,698.59
	c0.12,0.39,0.47,1.79,1.01,4.22c0.59-2.44,0.99-3.83,1.11-4.22l6.21-17.53h9.09l-13.15,31.35h-6.47l-13.16-31.35h9.08L358.74,698.59
	z" />
  <path fill="#0499D6" d="M374.44,472.74c-29.32,72.66-153.82,91.36-228.18,48.44c-25.07-5.52-54.81-57.36-45.47-58.21
	c4.9-0.31,13.11,4.46,22.4,10.17c-3.06,1.76-4.87,4.93-4.56,8.1c0.42,4.25,4.67,7.65,9.35,7.22c5.1-0.42,8.5-4.25,8.07-8.92
	c-0.42-2.3-1.66-4.18-3.31-5.5c6.31,1.3,9.26,5.53,9.26,10.18c12.32,5.95,23.79,9.35,31.44,0.85c3.82,7.22,10.62,11.05,17.42,13.6
	c15.72,3.4,44.19,5.95,47.59,1.7c-9.35-12.32-28.47-16.15-44.19-19.55c-2.97-4.25-2.55-12.32-8.92-17.85
	c8.92,2.97,9.77,8.5,13.6,12.75c19.55,0.85,47.17,12.75,50.14,28.89c-7.65,2.97-20.82,3.82-33.57,2.55
	c15.3,3.82,32.72,5.95,50.14,5.52c42.92-1.27,84.13-7.65,105.38-48.01C375.71,455.74,379.11,462.54,374.44,472.74z" />
  <path fill="#FFCF39" d="M412.25,312.12h-74.36c-7.22,0-8.07,2.55-17,14.87c-2.55,2.97-0.42,5.95,4.25,6.37
	c8.5,0.43,20.82,0.85,35.27,1.7c-2.55-3.82-2.97-8.5-2.12-11.05c4.25-3.4,10.2-3.4,12.75-3.4c-5.52,18.27,17,19.97,18.7,2.55
	c0.42,1.27,0.85,7.65-2.97,12.32c10.62,0,22.1,0.42,33.99,0.85c-14.02,0.42-25.92,0.85-36.54,1.27c-2.12,1.27-5.1,2.55-9.35,2.55
	s-7.22-0.85-9.77-2.12c-25.92,0.42-41.22,0.42-54.39-0.42c-6.8-0.42-5.95-3.82-5.52-8.07c0.42-2.55,5.95-47.17,9.77-80.31
	c2.55-19.55,8.07-42.49,24.64-48.01c-2.12-6.37-7.65-19.55-10.62-27.62c-4.25-10.62,2.12-19.12,15.72-19.12c7.65,0,27.19,0,52.69,0
	c3.82,0,8.92,0,13.17,2.55c5.1,2.97,7.65,8.92,5.1,15.3c-4.67,12.32-10.62,27.62-11.05,28.89c6.37,2.97,8.07,4.67,11.05,8.5
	c9.77,11.9,12.32,31.02,13.17,38.24c3.4,27.19,8.07,64.59,8.92,71.81C436.05,315.1,434.35,312.12,412.25,312.12z M393.98,166.38
	c-14.02,0-35.69,0-49.29,0c-5.52,0-4.25,5.1-1.7,10.62c4.25,9.77,7.65,17.85,10.2,23.37c0,0,30.17,0,37.39,0
	c2.55-5.1,7.65-17,11.05-25.49C405.45,165.1,398.23,166.38,393.98,166.38z M209.99,607.86c1.27-1.7,6.37-6.8,9.35-9.35
	c-2.12-2.55-3.4-5.52-3.4-9.35c0-7.65,6.37-14.02,14.02-14.02h23.79c7.65,0,14.02,6.37,14.02,14.02c0,3.82-1.27,7.22-3.82,9.77
	c2.55,2.55,7.65,7.65,8.92,8.92C255.89,614.24,225.72,614.66,209.99,607.86z M253.76,446.4h-23.79c-7.65,0-14.02-6.37-14.02-14.02
	s6.37-14.02,14.02-14.02h23.79c7.65,0.42,14.02,6.37,14.02,14.02S261.41,446.4,253.76,446.4z M229.54,329.97h23.8
	c7.65,0,14.02,5.95,14.02,14.02c0,7.65-6.37,14.02-14.02,14.02h-23.8c-7.65,0-14.02-6.37-14.02-14.02
	C215.52,336.34,221.89,329.97,229.54,329.97z M253.76,269.63h-23.79c-7.65,0-14.02-6.37-14.02-14.02s6.37-14.02,14.02-14.02h23.79
	c7.65,0,14.02,6.37,14.02,14.02S261.41,269.63,253.76,269.63z M220.19,191.45h42.49v41.64h-42.49V191.45z M233.79,151.08h15.3v17.85
	h-15.3V151.08z M241.86,134.09l7.22,13.17l-15.3,0.42L241.86,134.09z M114.81,455.32c-3.4,1.27-6.8,1.7-9.77,0.42
	c-2.97-1.27-5.52-3.4-6.8-6.8c-0.4-0.88-0.7-1.8-0.95-2.74c0.72,0.12,1.47,0.19,2.23,0.19c1.34,0,2.64,0.07,3.9,0.18
	c0.48,1.25,1.72,2.83,3.75,3.64c2.12,0.85,4.25,0.43,5.1-0.42c0.64-0.27,1.27-0.64,1.89-1.06c0.24,0.07,0.46,0.15,0.65,0.21
	c2.97-2.12,4.67-4.67,5.52-7.22c-0.27-0.04-0.54-0.08-0.81-0.12c0.82-2.09,1.23-4.16,1.23-5.83c0-4.25-1.7-7.65-4.67-8.92
	c-2.12-0.42-4.25,0-5.52,0.42c-2.97,1.27-5.52,4.25-7.22,8.07c-0.48,1.45-0.78,2.97-0.9,4.45c-2.15-0.11-4.08-0.14-5.71-0.08
	c0.18-2.04,0.68-4.09,1.51-6.07c2.12-5.52,5.95-9.35,10.2-11.47c3.4-1.27,6.8-1.7,9.77,0c7.22,2.97,10.62,12.75,6.8,22.1
	C122.89,449.37,119.06,453.62,114.81,455.32z" />
  <path fill="#E2A034" d="M359.99,227.57c-1.7,12.75-1.7,57.79-2.12,76.91c-9.35,0.42-22.1,0-24.64,0.85c1.7-19.97,2.97-66.71,3.82-80.73
	c0.85-14.45,7.65-17.85,17-17.42c5.1,0,13.17,0,31.87,0C375.29,208.02,361.69,213.54,359.99,227.57z M255.89,242.86
	c0,0-17,0-28.47,0c0-0.85,0.43-8.92-7.22-9.77c0,0,13.32,0,25.07,0v-41.64h11.47v41.64c3.17,0,5.41,0,5.95,0
	C255.46,234.79,255.89,240.74,255.89,242.86z M241.86,151.08h4.67v17.85h-4.67V151.08z M241.86,134.09l4.67,13.6l-4.67-0.42V134.09z
	 M131.81,104.77c3.82,27.62-18.27,35.69-25.07,36.12c-4.67,1.27-2.12,5.95-2.12,5.95c2.12,2.97,3.82,4.25,11.05,8.92
	c2.12,2.55-2.97,4.25-2.97,4.25s-9.35-8.92-14.02-11.47c-2.12-0.85,1.27-3.82-1.27-4.67c-0.85-0.42-9.35-0.85-10.62-1.7
	c16.15-1.7,41.64-15.72,26.34-35.27c11.47,24.64-31.87,32.72-35.27,33.14c-12.75,2.12-21.67,15.3-25.92,11.05
	c-4.67,4.67-14.87,5.52-10.62,2.97c3.82-2.55,17.85-14.02,27.62-27.19c21.25-28.89,39.94-31.02,41.22-36.54
	c2.55-14.45,26.34-19.12,30.59-2.55c2.12,0.42,5.1,1.27,8.5,4.25c-3.4,0-6.8,0-8.92,0.85C134.79,95.42,131.39,100.09,131.81,104.77z
	 M134.36,86.07c-1.27,0-2.55,1.27-2.55,2.55c0,1.27,1.27,2.55,2.55,2.55c1.27,0,2.55-0.85,2.55-2.55S135.64,85.65,134.36,86.07z
	 M252.06,596.81c-17.42,1.27-25.92-0.42-25.92-0.42s23.37-2.55,32.29-14.45C260.56,584.49,261.83,595.96,252.06,596.81z
	 M252.91,441.72c-14.02,0-26.34,0-26.34,0s19.97-1.27,32.29-14.45C262.68,429.4,263.11,441.72,252.91,441.72z M252.91,352.91
	c-14.02,0-26.34,0-26.34,0s19.97-1.27,32.29-14.45C262.26,340.59,263.11,352.91,252.91,352.91z M253.34,264.53
	c-14.02,0-26.34,0-26.34,0s19.97-1.27,32.29-14.45C262.68,252.21,263.53,264.53,253.34,264.53z" />
  <path fill="#EE422D" d="M132.66,111.14c0,21.25-16.57,28.04-20.82,28.89C113.12,135.36,119.91,113.27,132.66,111.14" />
  <path fill="#81C341" d="M174.3,274.31c0,0,21.25-10.62,23.37-21.25c-6.37-6.37-22.95-6.8-22.95-6.8s19.12-14.45,18.27-24.64
	c-9.35-4.25-26.34-1.7-26.34-1.7c7.65-10.62,9.77-19.55,9.77-26.77c-9.77-1.7-25.07,4.25-25.07,4.25s5.1-18.27,0-27.62
	c-8.92-2.55-21.67,13.6-21.67,13.6s-4.67-19.97-15.3-30.17c-10.62,10.62-15.3,30.17-15.3,30.17s-12.75-16.15-22.1-13.6
	c-5.1,9.35,0,27.62,0,27.62s-15.3-5.95-25.07-4.25c-0.42,7.65,2.12,16.15,9.77,26.77c0,0-17-2.55-26.34,1.7
	c-0.85,10.62,18.27,24.64,18.27,24.64s-16.57,0.42-22.95,6.8c2.12,10.62,22.95,21.25,22.95,21.25s-12.32,2.55-20.4,11.47
	c5.1,6.37,15.72,12.75,24.64,14.02c-7.22,5.52-11.47,10.2-13.6,14.02c11.9,9.77,37.39,11.05,62.46,3.4c0,4.67,0,43.77-5.95,61.61
	h25.49c-5.95-17.85-5.95-56.94-5.95-61.61c25.07,7.65,50.56,6.37,62.46-3.4c-1.7-3.4-5.95-8.07-13.6-14.02
	c8.5-1.27,19.55-7.65,24.22-14.02C186.62,276.86,174.3,274.31,174.3,274.31" />
  <path fill="#07974B" d="M151.36,274.73c2.55-1.27,14.45-5.1,20.82-16.15c-6.37-5.95-20.82-6.37-20.82-6.37s13.17-8.5,17.42-21.25
	c-11.05-3.4-22.52,0-22.52,0s9.35-13.6,10.62-24.64c-10.62,1.27-22.1,6.8-22.1,6.8c3.4-7.22,4.67-17,3.4-25.49
	c-5.1,0.85-10.2,7.22-13.17,11.05c-2.55-8.5-7.22-11.47-10.62-13.17c-5.1,7.65-6.37,12.75-5.52,22.95c1.7-1.7,4.67-4.67,8.92-7.22
	c2.55,14.87-2.55,25.92-2.55,25.92s6.37-4.25,15.3-5.1c0.42,8.07-2.55,17-11.47,26.77c0,0,7.65-4.67,16.57-5.1
	c-1.27,11.47-8.5,19.55-15.72,25.92c4.67-2.12,13.17-2.12,19.12-0.42c-2.97,8.92-9.77,13.17-19.97,18.7c6.37,0,12.75,0.85,16.15,3.4
	c-4.25,7.65-14.02,11.05-20.82,13.17c15.72,5.95,31.02,8.5,45.89,5.1c-0.85-4.67-6.8-9.77-13.17-13.6
	c5.95-1.27,14.87-3.4,22.95-9.77C165.38,280.26,159.01,276.86,151.36,274.73" />
  <path fill="#fff" fill-rule="evenodd" class="dark-only" d="M483.06,0L0.4,0.05v390.87C0.31,516.62,152.84,647.54,241.41,652.28l0.32,0.02l0.33-0.02
	c88.59-4.74,241.11-135.66,241.02-261.35L483.06,0z M470.86,12.23L12.63,12.28v378.65c-0.08,117.34,146.75,244.4,229.1,249.09
	c82.37-4.69,229.2-131.77,229.12-249.11C471.35,245.75,470.94,49.19,470.86,12.23z M16.27,636.17c0,0,3.41-1.95,3.41-1.98
	c0.02,0,2.13-0.92,2.22-0.98c0,0,5.82-2.63,6.09-2.71c0,0,6.24-2.89,6.2-2.86c13.22-5.57,28.15-11.85,37.64-24.83
	c0,0,0.6-0.82,1.12-1.53c0.25,0.98,0.49,1.85,0.49,1.85c0.78,3.13,1.17,6.19,1.17,9.14c0,5.78-1.47,11.25-3.04,17.11
	c-1.7,6.31-3.83,14.16-4.19,24.5l-0.05,1.63h348.32l-0.05-1.63c-0.36-10.36-2.48-18.21-4.29-24.9c-1.57-5.92-2.91-11.01-2.91-16.7
	c0-3.12,0.39-6.09,1.18-9.13c0,0,0.26-0.98,0.48-1.83c0.57,0.82,1.07,1.5,1.07,1.5c9.51,12.97,24.46,19.26,37.63,24.8
	c0,0,5.17,2.32,5,2.18c0,0,0.49,0.29,0.7,0.42c0,0,8.74,3.94,8.77,3.95c0,0,7.44,4.72,7.61,4.84c7.71,4.68,12.19,10.28,12.19,24.89
	c0,0-0.19,5.98-0.19,6.04l0.01,8.42l-0.05,39.39c0,4.68-1.86,8.99-5.42,12.4c-5.44,5.31-14.31,8.25-24.36,7.99H30.13
	c-10.14,0.26-19.08-2.68-24.5-7.99c-3.56-3.47-5.44-7.72-5.44-12.29l-0.02-39.19v-8.33L0,665.37C0,648.4,6.46,641.45,16.27,636.17z
	 M62.99,653.32c-2.06-5.06-3.07-9.42-3.07-13.32c0-3.27,0.63-5.96,1.17-8.31l0.21-1.32l0.8-5.37l-3.32,2.95
	c-5.94,5.31-13.12,8.01-18.97,10.2c0,0-7.6,3.18-7.8,3.28c0,0-2.55,1.3-2.89,1.48c-4.16,2.53-7.27,5.84-8.31,8.77l-0.56,1.63
	l1.65,0.45c4.14,1.15,9.14,1.73,14.88,1.73h27.13L62.99,653.32z M461.89,651.07c-1.04-2.36-3.32-4.9-6.41-7.01c0,0-6-3.26-6.14-3.33
	c0,0-6.22-2.56-6.28-2.57c-5.77-2.21-12.95-4.92-18.87-10.2l-3.24-2.83l0.7,5.13c0,0,0.22,1.38,0.32,1.8
	c0.53,2.41,1.1,4.91,1.1,7.95c0,3.8-1.03,8.16-3.14,13.32l-0.91,2.18h27.13c7.68,0,12.34-1.26,14.89-2.3l1.51-0.64L461.89,651.07z
	 M11.7,664.69c0,0,0.2,5.36,0.2,5.24l-0.02,8.72l0.02,39.09c0,1.48,0.61,2.75,1.86,3.97c3.05,3.06,9.29,4.84,16.24,4.66h423.17
	c6.84,0.18,12.97-1.6,15.96-4.62c1.32-1.21,1.96-2.53,1.96-4.09l0.01-48.13l0.4-9.17l-2.58,1.56c-5.65,3.45-13.53,5.28-22.77,5.28
	H36.79c-9.4,0-17.07-1.38-22.79-4.1l-2.38-1.08L11.7,664.69z" />
</svg>
