<svg xmlns="http://www.w3.org/2000/svg" viewBox="0 0 117.18 48.02">
  <path fill="#fff"
    d="M114.74,32l-3.83,9.36h-0.8l-3.54-8.38l-3.57,8.38h-0.83l-4.43-9.99c-0.41-0.92-0.83-1.37-2.2-1.51v-0.54h5.77
	v0.54c-1.75,0.09-1.87,0.59-1.25,1.99l3.21,7.16l2.91-6.9c-0.65-1.51-1.16-2.05-2.2-2.17l-0.71-0.09v-0.54h6.15v0.54
	c-1.46,0.03-1.9,0.47-1.28,1.96l2.91,7.07l2.85-6.95c0.65-1.58,0.15-2.08-1.72-2.08v-0.54h4.99v0.54
	C116.05,29.98,115.34,30.55,114.74,32z M114.71,10.07l-5.05,12.6c-0.89,2.2-1.57,3.18-2.61,3.18c-0.71,0-1.22-0.45-1.22-1.04
	c0-1.22,1.72-0.92,2.46-1.67c0.33-0.33,0.77-1.1,1.01-1.69l0.89-2.23l-4.6-9.77c-0.57-1.22-1.1-1.73-2.35-1.75V7.16h5.97V7.7
	c-1.81,0.03-2.02,0.56-1.43,1.81l3.36,7.25l2.52-6.3c0.89-2.26,0.33-2.7-1.43-2.76V7.16h4.93V7.7
	C115.96,7.84,115.28,8.68,114.71,10.07z M99.92,19.29c-1.75,0-3-1.46-3-3.45V8.47h-1.37V7.99c1.16-0.56,2.17-1.93,2.85-3.77h0.51
	v2.94h3.67l-0.47,1.31h-3.2v6.92c0,1.87,1.34,2.5,1.96,2.5c0.66,0,1.25-0.51,1.81-1.49l0.48,0.45
	C102.44,18.39,101.28,19.29,99.92,19.29z M88.2,18.37c1.82,0,2.47-0.6,2.47-2.17v-5.97c0-1.16-0.15-1.31-0.92-1.46l-1.4-0.27V8.02
	l3.86-1.34h0.45v9.98c0,1.04,0.56,1.7,2.14,1.7v0.56h-6.6V18.37z M91.44,2.26c-0.71,0-1.28-0.51-1.28-1.13
	C90.17,0.5,90.73,0,91.44,0c0.71,0,1.31,0.5,1.31,1.13C92.75,1.75,92.16,2.26,91.44,2.26z M86.77,15.9c0,1.93-1.61,3.39-3.69,3.39
	c-0.56,0-0.98-0.09-1.31-0.21c-0.33-0.09-0.57-0.18-0.8-0.18c-0.18,0-0.36,0.12-0.51,0.35h-0.45l-0.33-3.33h0.48
	c0.35,1.79,1.48,2.79,2.82,2.79c1.19,0,2.11-0.89,2.11-1.96c0-0.62-0.15-1.01-0.95-1.81c-2.11-2.11-4.46-2.32-4.46-4.78
	c0-1.96,1.55-3.33,3.8-3.33c0.8,0,1.63,0.18,2.38,0.48l0.06,2.7h-0.51c-0.21-1.52-1.19-2.46-2.38-2.46c-0.98,0-1.81,0.68-1.81,1.66
	C81.25,11.83,86.77,12.27,86.77,15.9z M82.91,31.77c-0.45-0.03-1.84-0.15-2.97-0.36c0.18,0.33,0.5,0.95,0.5,1.9
	c0,2.2-1.9,4.31-5.2,4.31c-0.56,0-0.83-0.06-1.37-0.24c-0.47,0.51-1.81,0.83-1.81,1.51c0,0.75,1.28,1.04,4.25,1.07
	c3.36,0.03,4.52,0.18,5.41,1.07c0.71,0.71,0.89,1.46,0.89,2.08c0,1.93-2.61,4.9-8.11,4.9c-3.09,0-4.57-1.37-4.57-2.82
	c0-1.72,1.81-1.99,3.18-3.65c-1.6-0.15-2.82-1.16-2.82-2.11c0-1.37,1.99-1.43,3.03-2.2c-1.81-0.71-2.85-1.99-2.85-3.69
	c0-2.56,2.29-4.55,5.23-4.55c1.37,0,2.53,0.42,3.33,1.19c1.34,0,2.58-0.15,3.89-0.3V31.77z M71.77,44.21c0,1.4,1.96,2.97,4.4,2.97
	c2.53,0,4.9-1.66,4.9-3.54c0-1.1-0.92-1.66-1.99-1.75c-0.77-0.09-4.51-0.12-5.38-0.24C72.87,42.64,71.77,43.06,71.77,44.21z
	 M75.34,29.57c-1.13,0-2.88,0.62-2.88,3.39c0,1.75,0.89,4.1,3.15,4.1c1.72,0,2.85-1.43,2.85-3.48
	C78.46,31.02,77.15,29.57,75.34,29.57z M76.21,9.03c-0.32-0.15-0.68-0.29-1.04-0.29c-0.53,0-0.86,0.36-1.16,0.77
	c-0.39,0.53-0.71,1.04-0.95,1.48v5.76c0,1.22,0.45,1.61,1.93,1.61h1.13v0.56h-7.04v-0.56c1.52-0.03,1.99-0.65,1.99-2.23V9.27
	l-1.99-0.72v-0.5l3.39-1.19h0.6v3.15h0.06c1.48-2.44,1.84-3,2.82-3c0.36,0,0.45,0.03,1.01,0.27c0.3,0.12,0.83,0.24,1.54,0.44
	l-0.71,1.79C77.34,9.45,76.78,9.3,76.21,9.03z M68.65,38.07c0,1.93-1.61,3.39-3.68,3.39c-0.56,0-0.98-0.09-1.31-0.21
	c-0.32-0.09-0.56-0.18-0.8-0.18c-0.18,0-0.35,0.12-0.5,0.36h-0.45l-0.32-3.33h0.47c0.36,1.78,1.49,2.8,2.83,2.8
	c1.19,0,2.11-0.9,2.11-1.96c0-0.63-0.15-1.01-0.95-1.82c-2.11-2.11-4.46-2.32-4.46-4.78c0-1.96,1.54-3.33,3.8-3.33
	c0.8,0,1.63,0.18,2.38,0.48l0.06,2.7h-0.5c-0.21-1.52-1.19-2.47-2.38-2.47c-0.98,0-1.81,0.68-1.81,1.66
	C63.13,33.99,68.65,34.44,68.65,38.07z M58.86,12.63c0,3.09,2.17,5.17,4.51,5.17c1.49,0,2.65-0.59,3.78-1.93l0.33,0.36
	c-1.25,1.58-3.12,3.06-5.29,3.06c-2.91,0-5.17-2.65-5.17-6.09c0-3.15,2.11-6.36,5.73-6.36c4.01,0,3.92,2.88,4.9,3.86v0.68h-8.68
	C58.92,11.83,58.86,12.24,58.86,12.63z M65.16,10.61c-0.33-1.93-1.51-3.21-2.94-3.21c-0.98,0-2.46,0.45-3.15,3.21H65.16z
	 M54.83,9.87l-4.1,9.33h-0.86l-4.31-9.86c-0.45-1.04-0.83-1.4-1.31-1.49L43.33,7.7V7.16h6.06V7.7c-1.81,0.06-2.38,0.29-1.67,1.69
	l3.15,7.4l3.03-6.86c0.54-1.22,0.27-2.08-1.9-2.23V7.16h5.17V7.7C56.05,7.9,55.4,8.56,54.83,9.87z M43.82,18.93h-6.6v-0.56
	c1.81,0,2.47-0.6,2.47-2.17v-5.97c0-1.16-0.15-1.31-0.92-1.46l-1.4-0.27V8.02l3.86-1.34h0.45v9.98c0,1.04,0.56,1.7,2.14,1.7V18.93z
	 M40.46,2.26c-0.72,0-1.28-0.51-1.28-1.13C39.18,0.5,39.75,0,40.46,0c0.71,0,1.31,0.5,1.31,1.13C41.77,1.75,41.17,2.26,40.46,2.26z
	 M29.98,18.37c0.86-0.03,1.36-0.24,1.69-0.57c0.56-0.57,0.62-2.74,0.62-6.69c0-2.38-1.16-3.12-2.35-3.12c-0.95,0-2.4,0.83-3.95,1.9
	v6.45c0,1.63,0.39,2.02,1.99,2.02v0.56h-5.97v-0.56c1.31,0,1.99-0.72,1.99-1.87v-6.24c0-1.1-0.12-1.31-0.89-1.46L22.1,8.59V8.11
	l3.42-1.25H26v2.32c1.99-1.25,3.65-2.35,5.11-2.35c2.02,0,3.18,1.48,3.18,4.45c0,3.95-0.21,4.72-0.24,5.89
	c-0.03,0.8,0.44,1.19,1.66,1.19h0.65v0.56h-6.39V18.37z M19.94,3.74v8.02c0,3.68-2.35,7.64-8.8,7.64c-5.67,0-8.59-3.24-8.59-7.49
	V3.24c0-1.9-0.53-2.2-2.56-2.23V0.45h7.64v0.56H7.37c-1.63,0-2.35,0.45-2.35,2.17v8.26c0,4.01,2.35,6.42,6.77,6.42
	c3.36,0,6.78-1.4,6.78-6.44V4.49c0-2.85-0.45-3.36-2.91-3.48V0.45h6.98v0.56C20.65,1.04,19.94,1.84,19.94,3.74z M3.66,41.45
	c-1.4,0-2.64-2.23-2.64-4.7c0-4.81,5.17-7.79,6.95-7.79c0.86,0,2.7,1.19,2.7,4.37C10.67,38.99,5.05,41.45,3.66,41.45z M6.45,30.07
	c-1.87,0-3.54,3.59-3.54,6.57c0,2.49,1.07,3.71,2.08,3.71c2.38,0,3.77-3.86,3.77-6.6C8.77,31.67,7.76,30.07,6.45,30.07z
	 M11.82,29.75c0.71-0.09,1.43-0.21,2.17-0.39c0.45-2.44,1.34-4.99,3-6.65c1.04-1.04,2.35-1.6,3.51-1.6c1.16,0,2.11,0.65,2.11,1.43
	c0,0.47-0.36,0.86-0.83,0.86c-0.98,0-1.78-1.22-2.64-1.22c-1.16,0-2.11,1.31-2.53,3.27l-0.8,3.89h2.55l-0.3,0.98h-2.44l-1.51,8.68
	c-1.16,6.66-4.55,9.03-7.34,9.03c-1.25,0-2.29-0.62-2.29-1.37c0-0.48,0.48-0.89,0.98-0.89c1.1,0,1.69,1.31,2.82,1.31
	c0.68,0,1.28-0.33,1.81-0.86c1.48-1.49,2.05-6.56,2.17-7.28l1.52-8.62h-2.05L11.82,29.75z M35.26,33.7h-1.1v-0.53h8.02v0.53
	c-1.48,0.09-2.08,0.6-2.08,1.87v4.13c-2.94,1.52-6.71,1.87-7.96,1.87c-6.51,0-9.54-5.02-9.54-9.36c0-4.46,3.12-10.04,10.37-10.04
	c3.18,0,5.29,1.01,5.91,1.01c0.27,0,0.51-0.06,0.68-0.21h0.42v4.81h-0.59c-0.81-3.71-3.33-4.87-6.09-4.87c-5.23,0-7.9,4.34-7.9,9.12
	c0,6.09,4.28,8.79,7.7,8.79c1.37,0,2.88-0.3,4.55-1.13v-3.74C37.64,34.26,37.04,33.7,35.26,33.7z M43.74,23l-1.34-0.15v-0.5
	l3.8-1.22h0.44v17.62c0,1.22,0.57,1.78,1.72,1.78h0.51v0.57h-6.68v-0.57c1.9,0,2.46-0.56,2.46-1.99V24.19
	C44.66,23.36,44.57,23.09,43.74,23z M50.34,32.87c-0.06-0.18-0.09-0.27-0.09-0.42c0-1.04,2.47-3.45,4.4-3.45
	c0.89,0,2.29,0.42,3.12,1.58c0.45,0.62,0.45,1.01,0.45,2.55v3.98c0,2.38,0,2.91,0.77,2.91c0.32,0,0.71-0.03,1.45-0.65l0.15,0.45
	c-1.6,1.31-2.44,1.63-2.94,1.63c-1.22,0-1.34-1.34-1.37-1.81c-2.05,1.69-2.64,1.81-3.45,1.81c-1.72,0-2.76-0.98-2.76-2.44
	c0-1.81,1.6-2.44,3.51-2.91c0.62-0.15,1.6-0.51,2.64-1.13v-2.35c0-0.83,0-1.31-0.51-1.9c-0.38-0.48-1.01-0.86-1.66-0.86
	c-0.98,0-1.84,0.83-1.84,1.45c0,0.18,0.03,0.3,0.15,0.57L50.34,32.87z M54.47,36.4c-1.81,0.74-2.5,1.04-2.5,2.26
	c0,1.07,0.86,1.75,1.75,1.75c0.47,0,0.83-0.15,2.5-1.31v-3.54C55.66,35.9,55.19,36.11,54.47,36.4z M83.52,35.3
	c0-4.1,3.33-6.3,6.42-6.3c3.63,0,6.39,2.7,6.39,6.24c0,3.5-2.76,6.21-6.3,6.21C86.34,41.45,83.52,38.78,83.52,35.3z M94.09,35.99
	c0-3.39-2.08-6.27-4.57-6.27c-1.96,0-3.78,2.02-3.78,4.58c0,3.6,2.05,6.45,4.61,6.45C92.1,40.74,94.09,38.96,94.09,35.99z" />
</svg>
