<svg xmlns="http://www.w3.org/2000/svg" width="123.168" height="106.666" viewBox="0 0 115.47 100"><path transform="matrix(-.5925 0 0 -.5925 116.985 109.25)" style="fill:#003865;fill-opacity:1;stroke:#fff;stroke-width:2.49958563;stroke-miterlimit:4;stroke-dasharray:none;stroke-opacity:1" d="M148 16.862 196 100l-48 83.138H52L4 100l48-83.138z"/><path d="M264.533 687.178v-16.911l-15.893-9.5-15.702 9.397v17.111l-15.798 8.489v18.999l16.156 9.194 15.44-8.933 15.438 8.933 16.156-9.194v-18.896zm-3.01.095-11.377 6.276v-13.048l11.377-6.685zm-12.888-22.933 11.248 6.835-11.237 6.606-10.995-6.724zm-26.782 32.316 12.58-6.66 11.156 6.363-12.29 7.022zm12.946 9.445L247.232 699v13.312l-12.433 7.258zm17.146-9.863 11.182-6.293 12.556 6.83-11.498 6.606zm25.376 16.648-11.64 6.684V706.1l11.64-6.682z" style="fill:#fff;stroke-width:2.63290548" transform="translate(-191 -642.362)"/></svg>