<?xml version="1.0" encoding="UTF-8" standalone="no"?>
<!-- Created with Inkscape (http://www.inkscape.org/) -->

<svg
   xmlns:dc="http://purl.org/dc/elements/1.1/"
   xmlns:cc="http://creativecommons.org/ns#"
   xmlns:rdf="http://www.w3.org/1999/02/22-rdf-syntax-ns#"
   xmlns:svg="http://www.w3.org/2000/svg"
   xmlns="http://www.w3.org/2000/svg"
   xmlns:sodipodi="http://sodipodi.sourceforge.net/DTD/sodipodi-0.dtd"
   xmlns:inkscape="http://www.inkscape.org/namespaces/inkscape"
   width="315.58572mm"
   height="70.370209mm"
   viewBox="0 0 1118.2171 249.34326"
   id="svg2"
   version="1.1"
   inkscape:version="0.92.1 r15371"
   sodipodi:docname="galogo.svg">
  <defs
     id="defs4" />
  <sodipodi:namedview
     id="base"
     pagecolor="#ffffff"
     bordercolor="#666666"
     borderopacity="1.0"
     inkscape:pageopacity="0.0"
     inkscape:pageshadow="2"
     inkscape:zoom="0.98994949"
     inkscape:cx="770.63328"
     inkscape:cy="136.89037"
     inkscape:document-units="px"
     inkscape:current-layer="layer1"
     showgrid="false"
     showguides="true"
     inkscape:guide-bbox="true"
     inkscape:window-width="1855"
     inkscape:window-height="1056"
     inkscape:window-x="65"
     inkscape:window-y="24"
     inkscape:window-maximized="1"
     fit-margin-top="0"
     fit-margin-left="0"
     fit-margin-right="0"
     fit-margin-bottom="0">
    <sodipodi:guide
       position="-111.97242,467.76701"
       orientation="1,0"
       id="guide4144"
       inkscape:locked="false" />
    <sodipodi:guide
       position="209.25608,460.19087"
       orientation="1,0"
       id="guide4146"
       inkscape:locked="false" />
    <sodipodi:guide
       position="253.42857,663.48614"
       orientation="1,0"
       id="guide4261"
       inkscape:locked="false" />
    <sodipodi:guide
       position="224.76786,546.25401"
       orientation="0,1"
       id="guide4265"
       inkscape:locked="false" />
  </sodipodi:namedview>
  <metadata
     id="metadata7">
    <rdf:RDF>
      <cc:Work
         rdf:about="">
        <dc:format>image/svg+xml</dc:format>
        <dc:type
           rdf:resource="http://purl.org/dc/dcmitype/StillImage" />
        <dc:title></dc:title>
      </cc:Work>
    </rdf:RDF>
  </metadata>
  <g
     inkscape:label="Layer 1"
     inkscape:groupmode="layer"
     id="layer1"
     transform="translate(-171.57142,-375.7908)">
    <path
       style="fill:#951272;fill-opacity:1;stroke:none;stroke-width:7.47822332;stroke-miterlimit:8;stroke-dasharray:none"
       d="m 989.14844,391.47653 h 20.64266 v 61.45288 c -2.8254,-0.5435 -6.8082,-1.11666 -10.71491,-1.5602 -3.73952,-0.42457 -7.40935,-0.73038 -9.92775,-0.77776 z"
       id="rect4263"
       inkscape:connector-curvature="0"
       sodipodi:nodetypes="cccscc" />
    <path
       style="fill:#951272;fill-opacity:1;stroke:none;stroke-width:7.47822332;stroke-miterlimit:8;stroke-dasharray:none"
       d="m 961.81085,376.134 h 20.64267 l -0.16741,74.2883 c -3.20487,0.18613 -7.02955,0.5484 -10.29027,1.05839 -3.1384,0.49086 -7.1134,1.22621 -10.30337,2.12938 z"
       id="rect4259"
       inkscape:connector-curvature="0"
       sodipodi:nodetypes="cccscc" />
    <path
       style="fill:#951272;fill-opacity:1;stroke:none;stroke-width:7.47822332;stroke-miterlimit:8;stroke-dasharray:none"
       d="m 1016.4113,411.30728 h 20.6427 v 52.95674 c -3.3351,-1.99717 -6.7859,-3.82911 -10.2812,-5.49773 -3.4332,-1.63896 -6.9095,-3.12034 -10.3615,-4.44595 z"
       id="rect4267"
       inkscape:connector-curvature="0"
       sodipodi:nodetypes="cccscc" />
    <path
       style="fill:#951272;fill-opacity:1;stroke:none;stroke-width:7.47822332;stroke-miterlimit:8;stroke-dasharray:none"
       d="m 934.31384,396.05936 h 20.64267 v 59.20799 c -3.61144,1.16458 -6.47243,2.58122 -9.8894,4.1581 -3.53823,1.63285 -6.80976,3.20077 -10.51652,5.54883 z"
       id="rect4273"
       inkscape:connector-curvature="0"
       sodipodi:nodetypes="cccscc" />
    <g
       style="font-style:normal;font-variant:normal;font-weight:normal;font-stretch:normal;font-size:40px;line-height:125%;font-family:Poppins;-inkscape-font-specification:'Poppins, Normal';text-align:start;letter-spacing:0px;word-spacing:0px;writing-mode:lr-tb;text-anchor:start;fill:#ffffff;fill-opacity:1;stroke:none;stroke-width:1px;stroke-linecap:butt;stroke-linejoin:miter;stroke-opacity:1"
       id="text4136"
       transform="matrix(2.2316393,0,0,2.2316393,37.354258,200.27701)">
      <path
         d="m 63.782857,103.84792 h 5.12 q 5.24,0 8,-2.88 2.76,-2.880001 2.76,-8.040001 0,-5.16 -2.76,-8.04 -2.76,-2.88 -8,-2.88 h -5.12 z m 5.12,-24.920001 q 6.72,0 10.6,3.76 3.88,3.76 3.88,10.24 0,6.48 -3.88,10.120001 -3.88,3.6 -10.6,3.6 h -8.76 V 78.927919 Z"
         id="path4164"
         inkscape:connector-curvature="0"
         style="fill:#ffffff" />
      <path
         d="m 107.07536,106.64792 -2.16,-6.08 H 92.595357 l -2.16,6.08 h -3.72 l 10.08,-27.720001 h 4.000003 l 10.04,27.720001 z M 93.635357,97.687919 h 10.240003 l -5.120003,-14.32 z"
         id="path4166"
         inkscape:connector-curvature="0"
         style="fill:#ffffff" />
      <path
         d="m 114.37161,81.847919 v -2.92 h 18.28 v 2.92 h -7.32 v 24.800001 h -3.64 V 81.847919 Z"
         id="path4168"
         inkscape:connector-curvature="0"
         style="fill:#ffffff" />
      <path
         d="m 156.60661,106.64792 -2.16,-6.08 h -12.32 l -2.16,6.08 h -3.72 l 10.08,-27.720001 h 4 l 10.04,27.720001 z m -13.44,-8.960001 h 10.24 l -5.12,-14.32 z"
         id="path4170"
         inkscape:connector-curvature="0"
         style="fill:#ffffff" />
      <path
         d="m 196.29411,106.64792 -2.16,-6.08 h -12.32 l -2.16,6.08 h -3.72 l 10.08,-27.720001 h 4 l 10.04,27.720001 z m -13.44,-8.960001 h 10.24 l -5.12,-14.32 z"
         id="path4172"
         inkscape:connector-curvature="0"
         style="fill:#ffffff" />
      <path
         d="m 223.11036,78.927919 h 3.64 v 27.720001 h -3.64 l -14.64,-22.000001 v 22.000001 h -3.64 V 78.927919 h 3.64 l 14.64,22.000001 z"
         id="path4174"
         inkscape:connector-curvature="0"
         style="fill:#ffffff" />
      <path
         d="m 251.84098,106.64792 -2.16,-6.08 h -12.32 l -2.16,6.08 h -3.72 l 10.08,-27.720001 h 4 l 10.04,27.720001 z m -13.44,-8.960001 h 10.24 l -5.12,-14.32 z"
         id="path4176"
         inkscape:connector-curvature="0"
         style="fill:#ffffff" />
      <path
         d="m 260.37723,78.927919 h 3.64 v 24.920001 h 9.72 v 2.8 h -13.36 z"
         id="path4178"
         inkscape:connector-curvature="0"
         style="fill:#ffffff" />
      <path
         d="m 287.84473,106.64792 h -3.64 V 96.167919 l -9.04,-17.24 h 4 l 6.84,13.88 6.8,-13.88 h 4.04 l -9,17.24 z"
         id="path4180"
         inkscape:connector-curvature="0"
         style="fill:#ffffff" />
      <path
         d="m 299.21536,81.847919 v -2.92 h 18.28 v 2.92 h -7.32 v 24.800001 h -3.64 V 81.847919 Z"
         id="path4182"
         inkscape:connector-curvature="0"
         style="fill:#ffffff" />
      <path
         d="M 322.33036,106.64792 V 78.927919 h 3.64 v 27.720001 z"
         id="path4184"
         inkscape:connector-curvature="0"
         style="fill:#ffffff" />
      <path
         d="m 344.61973,106.88792 q -5.96,0 -10.04,-4 -4.08,-4.000001 -4.08,-10.120001 0,-6.16 4.08,-10.12 4.08,-4 10.04,-4 4.32,0 7.68,2.04 3.4,2.04 5,5.88 h -4.4 q -2.48,-4.68 -8.28,-4.68 -4.52,0 -7.48,3 -2.92,2.96 -2.92,7.88 0,4.92 2.92,7.920001 2.96,3 7.48,3 2.76,0 4.92,-1.2 2.16,-1.24 3.36,-3.520001 h 4.4 q -1.6,3.840001 -5,5.880001 -3.36,2.04 -7.68,2.04 z"
         id="path4186"
         inkscape:connector-curvature="0"
         style="fill:#ffffff" />
      <path
         d="m 365.99348,86.327919 q 0,1.52 0.84,2.52 0.84,1 2.16,1.48 1.32,0.48 2.92,0.84 1.64,0.36 3.24,0.84 1.64,0.44 2.96,1.16 1.32,0.72 2.16,2.16 0.84,1.44 0.84,3.56 0,3.240001 -2.48,5.640001 -2.48,2.4 -6.72,2.4 -4.2,0 -6.84,-1.92 -2.64,-1.96 -2.64,-5.280001 h 3.88 q 0.16,1.880001 1.48,3.040001 1.36,1.16 4,1.16 2.64,0 4.2,-1.36 1.56,-1.36 1.56,-3.160001 0,-1.84 -0.84,-2.8 -0.84,-1 -2.16,-1.48 -1.32,-0.48 -2.96,-0.8 -1.6,-0.36 -3.24,-0.84 -1.6,-0.48 -2.92,-1.2 -1.32,-0.76 -2.16,-2.2 -0.84,-1.48 -0.84,-3.64 0,-3.52 2.48,-5.64 2.52,-2.16 6.52,-2.16 4.04,0 6.4,1.88 2.4,1.84 2.76,5.12 h -4.04 q -0.16,-1.64 -1.56,-2.8 -1.36,-1.16 -3.72,-1.16 -2.32,0 -3.8,1.2 -1.48,1.16 -1.48,3.44 z"
         id="path4188"
         inkscape:connector-curvature="0"
         style="fill:#ffffff" />
    </g>
    <path
       inkscape:connector-curvature="0"
       id="path4149"
       style="font-style:normal;font-variant:normal;font-weight:normal;font-stretch:normal;font-size:medium;line-height:125%;font-family:Poppins;-inkscape-font-specification:'Poppins, Normal';text-align:start;letter-spacing:0px;word-spacing:0px;writing-mode:lr-tb;text-anchor:start;fill:#ffffff;fill-opacity:1;stroke:none;stroke-width:2.23163939px;stroke-linecap:butt;stroke-linejoin:miter;stroke-opacity:1"
       d="m 249.92737,624.90675 q -32.2216,0 -55.20484,-22.53259 -22.98323,-22.53257 -22.98323,-57.00743 0,-34.70018 22.98323,-57.00745 22.98324,-22.53259 56.55679,-22.53259 24.33519,0 43.26255,11.49162 19.15271,11.49163 28.16575,33.12291 h -24.78584 q -13.97022,-26.36314 -46.64246,-26.36314 -25.46182,0 -42.13593,16.89945 -16.44879,16.67412 -16.44879,44.3892 0,27.71506 16.44879,44.61451 16.67411,16.89945 41.23463,16.89945 24.78584,0 39.65735,-13.97022 15.09684,-13.9702 17.57541,-37.85474 h -64.44319 v -16.22346 h 86.07447 v 16.22346 q -3.15456,30.19368 -25.01117,50.02235 -21.85661,19.82867 -54.30352,19.82867 z" />
    <path
       inkscape:connector-curvature="0"
       id="path4151"
       style="font-style:normal;font-variant:normal;font-weight:normal;font-stretch:normal;font-size:medium;line-height:125%;font-family:Poppins;-inkscape-font-specification:'Poppins, Normal';text-align:start;letter-spacing:0px;word-spacing:0px;writing-mode:lr-tb;text-anchor:start;fill:#ffffff;fill-opacity:1;stroke:none;stroke-width:2.23163939px;stroke-linecap:butt;stroke-linejoin:miter;stroke-opacity:1"
       d="m 355.00667,467.40399 h 20.50466 v 140.37799 h 54.75418 v 15.7728 h -75.25884 z" />
    <path
       inkscape:connector-curvature="0"
       id="path4153"
       style="font-style:normal;font-variant:normal;font-weight:normal;font-stretch:normal;font-size:medium;line-height:125%;font-family:Poppins;-inkscape-font-specification:'Poppins, Normal';text-align:start;letter-spacing:0px;word-spacing:0px;writing-mode:lr-tb;text-anchor:start;fill:#ffffff;fill-opacity:1;stroke:none;stroke-width:2.23163939px;stroke-linecap:butt;stroke-linejoin:miter;stroke-opacity:1"
       d="m 559.53212,623.55478 -12.16759,-34.24953 h -69.40036 l -12.16759,34.24953 h -20.9553 l 56.7821,-156.15079 h 22.5326 l 56.55679,156.15079 z m -75.70948,-50.47299 h 57.68342 l -28.84171,-80.66664 z" />
    <path
       inkscape:connector-curvature="0"
       id="path4155"
       style="font-style:normal;font-variant:normal;font-weight:normal;font-stretch:normal;font-size:medium;line-height:125%;font-family:Poppins;-inkscape-font-specification:'Poppins, Normal';text-align:start;letter-spacing:0px;word-spacing:0px;writing-mode:lr-tb;text-anchor:start;fill:#ffffff;fill-opacity:1;stroke:none;stroke-width:2.23163939px;stroke-linecap:butt;stroke-linejoin:miter;stroke-opacity:1"
       d="m 624.29218,509.08927 q 0,8.56238 4.73185,14.19552 4.73184,5.63315 12.16759,8.33705 7.43576,2.70392 16.44879,4.73184 9.23836,2.02793 18.25139,4.73185 9.23837,2.4786 16.67412,6.53444 7.43573,4.05587 12.16759,12.16761 4.73184,8.11172 4.73184,20.05401 0,18.25137 -13.9702,31.77093 -13.9702,13.51956 -37.85474,13.51956 -23.65922,0 -38.53073,-10.81564 -14.87151,-11.04097 -14.87151,-29.74302 h 21.85661 q 0.90132,10.59031 8.33707,17.12475 7.66106,6.53447 22.53257,6.53447 14.87151,0 23.65922,-7.66109 8.7877,-7.66108 8.7877,-17.80074 0,-10.36498 -4.73183,-15.7728 -4.73186,-5.63315 -12.16759,-8.33707 -7.43575,-2.7039 -16.67412,-4.5065 -9.01303,-2.02794 -18.25139,-4.73186 -9.01304,-2.7039 -16.44879,-6.75977 -7.43576,-4.2812 -12.16759,-12.39292 -4.73186,-8.33707 -4.73186,-20.50466 0,-19.82867 13.97022,-31.77093 14.19553,-12.16761 36.7281,-12.16761 22.75792,0 36.05213,10.59033 13.51956,10.36498 15.5475,28.84171 H 683.7782 q -0.9013,-9.23836 -8.78771,-15.77283 -7.66108,-6.53444 -20.95529,-6.53444 -13.06891,0 -21.40595,6.75977 -8.33707,6.53447 -8.33707,19.37804 z" />
    <path
       inkscape:connector-curvature="0"
       id="path4157"
       style="font-style:normal;font-variant:normal;font-weight:normal;font-stretch:normal;font-size:medium;line-height:125%;font-family:Poppins;-inkscape-font-specification:'Poppins, Normal';text-align:start;letter-spacing:0px;word-spacing:0px;writing-mode:lr-tb;text-anchor:start;fill:#ffffff;fill-opacity:1;stroke:none;stroke-width:2.23163939px;stroke-linecap:butt;stroke-linejoin:miter;stroke-opacity:1"
       d="m 810.16137,624.90675 q -32.22159,0 -55.20482,-22.53259 -22.98323,-22.53257 -22.98323,-57.00743 0,-34.70018 22.98323,-57.00745 22.98323,-22.53259 56.5568,-22.53259 24.33517,0 43.26256,11.49162 19.15268,11.49163 28.16572,33.12291 h -24.78584 q -13.9702,-26.36314 -46.64244,-26.36314 -25.46183,0 -42.13594,16.89945 -16.44879,16.67412 -16.44879,44.3892 0,27.71506 16.44879,44.61451 16.67411,16.89945 41.23462,16.89945 24.78584,0 39.65735,-13.97022 15.09684,-13.9702 17.57543,-37.85474 H 803.4016 v -16.22346 h 86.07449 v 16.22346 q -3.15458,30.19368 -25.01119,50.02235 -21.85658,19.82867 -54.30353,19.82867 z" />
    <path
       inkscape:connector-curvature="0"
       style="font-style:normal;font-variant:normal;font-weight:normal;font-stretch:normal;font-size:medium;line-height:125%;font-family:Poppins;-inkscape-font-specification:'Poppins, Normal';text-align:start;letter-spacing:0px;word-spacing:0px;writing-mode:lr-tb;text-anchor:start;fill:#ffffff;fill-opacity:1;stroke:none;stroke-width:2.23163939px;stroke-linecap:butt;stroke-linejoin:miter;stroke-opacity:1"
       d="m 986.66833,465.82466 c -22.38236,0 -41.23594,7.51259 -56.55811,22.53431 -13.84486,13.43768 -21.40867,30.25965 -22.74353,50.4429 h 20.73419 c 1.16967,-15.44847 6.57097,-28.058 16.20554,-37.82454 11.11606,-11.2663 25.16073,-16.89855 42.13527,-16.89855 17.12481,0 31.17381,5.63225 42.13961,16.89855 9.6346,9.76654 15.0315,22.37607 16.2012,37.82454 h 20.9652 c -1.3349,-20.18325 -8.903,-37.00522 -22.7479,-50.4429 -15.1719,-15.02172 -33.9491,-22.53431 -56.33147,-22.53431 z"
       id="path4237" />
    <path
       inkscape:connector-curvature="0"
       style="font-style:normal;font-variant:normal;font-weight:normal;font-stretch:normal;font-size:medium;line-height:125%;font-family:Poppins;-inkscape-font-specification:'Poppins, Normal';text-align:start;letter-spacing:0px;word-spacing:0px;writing-mode:lr-tb;text-anchor:start;fill:#00843d;fill-opacity:1;stroke:none;stroke-width:2.23163939px;stroke-linecap:butt;stroke-linejoin:miter;stroke-opacity:1"
       d="m 1065.508,554.93767 h -21.0132 c -1.6118,14.10887 -6.9109,25.7945 -15.9135,35.0437 -3.9133,4.0205 -8.2188,7.31282 -12.8973,9.89855 l 7.1657,17.22112 c 7.3014,-3.61633 14.0241,-8.436 20.1501,-14.50131 13.1533,-12.89535 20.6463,-28.78895 22.5082,-47.66206 z"
       id="path4233" />
    <path
       inkscape:connector-curvature="0"
       style="font-style:normal;font-variant:normal;font-weight:normal;font-stretch:normal;font-size:medium;line-height:125%;font-family:Poppins;-inkscape-font-specification:'Poppins, Normal';text-align:start;letter-spacing:0px;word-spacing:0px;writing-mode:lr-tb;text-anchor:start;fill:#00843d;fill-opacity:1;stroke:none;stroke-width:2.23163939px;stroke-linecap:butt;stroke-linejoin:miter;stroke-opacity:1"
       d="m 1007.6771,622.65398 -7.1482,-17.17753 c -4.37545,0.92738 -8.99048,1.4035 -13.86057,1.4035 -5.32427,0 -10.35925,-0.55224 -15.10715,-1.66065 l -7.12207,17.12522 c 6.97927,1.84637 14.38215,2.78955 22.22922,2.78955 7.39967,0 14.39727,-0.83825 21.00877,-2.48009 z"
       id="path4229" />
    <path
       inkscape:connector-curvature="0"
       style="font-style:normal;font-variant:normal;font-weight:normal;font-stretch:normal;font-size:medium;line-height:125%;font-family:Poppins;-inkscape-font-specification:'Poppins, Normal';text-align:start;letter-spacing:0px;word-spacing:0px;writing-mode:lr-tb;text-anchor:start;fill:#00843d;fill-opacity:1;stroke:none;stroke-width:2.23163939px;stroke-linecap:butt;stroke-linejoin:miter;stroke-opacity:1"
       d="m 949.35811,616.58236 7.18744,-17.27778 c -4.32212,-2.49501 -8.33242,-5.5934 -12.01249,-9.32321 -9.12586,-9.24918 -14.49755,-20.93487 -16.13142,-35.0437 h -20.78652 c 1.87078,18.75751 9.35427,34.65007 22.4951,47.66206 5.89133,5.77582 12.31281,10.42758 19.24789,13.98263 z"
       id="path4225" />
    <path
       inkscape:connector-curvature="0"
       id="path4161"
       style="font-style:normal;font-variant:normal;font-weight:normal;font-stretch:normal;font-size:medium;line-height:125%;font-family:Poppins;-inkscape-font-specification:'Poppins, Normal';text-align:start;letter-spacing:0px;word-spacing:0px;writing-mode:lr-tb;text-anchor:start;fill:#ffffff;fill-opacity:1;stroke:none;stroke-width:2.23163939px;stroke-linecap:butt;stroke-linejoin:miter;stroke-opacity:1"
       d="m 1268.1573,467.40399 h 21.6313 l -47.3185,156.15079 h -22.9832 l -35.1508,-126.18246 -37.6295,126.18246 -22.7579,0.22533 -44.1638,-156.37612 h 21.6312 l 34.7002,132.7169 37.8548,-132.7169 h 22.5325 l 34.9256,132.26627 z" />
  </g>
</svg>
