<?xml version="1.0" encoding="UTF-8" standalone="no"?>
<svg
   xmlns:dc="http://purl.org/dc/elements/1.1/"
   xmlns:cc="http://creativecommons.org/ns#"
   xmlns:rdf="http://www.w3.org/1999/02/22-rdf-syntax-ns#"
   xmlns:svg="http://www.w3.org/2000/svg"
   xmlns="http://www.w3.org/2000/svg"
   xmlns:sodipodi="http://sodipodi.sourceforge.net/DTD/sodipodi-0.dtd"
   xmlns:inkscape="http://www.inkscape.org/namespaces/inkscape"
   version="1.1"
   id="svg2"
   viewBox="0 0 115.46977 99.999751"
   height="28.222153mm"
   width="32.588135mm"
   sodipodi:docname="shiny-icon.svg"
   inkscape:version="0.92.2 (5c3e80d, 2017-08-06)">
  <sodipodi:namedview
     pagecolor="#ffffff"
     bordercolor="#666666"
     borderopacity="1"
     objecttolerance="10"
     gridtolerance="10"
     guidetolerance="10"
     inkscape:pageopacity="0"
     inkscape:pageshadow="2"
     inkscape:window-width="1853"
     inkscape:window-height="1025"
     id="namedview92"
     showgrid="false"
     inkscape:zoom="2.2125054"
     inkscape:cx="62.145406"
     inkscape:cy="50.896736"
     inkscape:window-x="67"
     inkscape:window-y="27"
     inkscape:window-maximized="1"
     inkscape:current-layer="svg2" />
  <defs
     id="defs4">
    <path
       d="M 0,0 H 24 V 24 H 0 Z"
       id="a" />
    <path
       style="stroke-width:1"
       id="MJMATHI-78"
       d="m 52,289 q 7,42 54,97 47,55 116,56 35,0 64,-18 29,-18 43,-45 42,63 101,63 37,0 64,-22 27,-22 28,-59 0,-29 -14,-47 -14,-18 -27,-22 -13,-4 -23,-4 -19,0 -31,11 -12,11 -12,29 0,46 50,63 -11,13 -40,13 -13,0 -19,-2 -38,-16 -56,-66 -60,-221 -60,-258 0,-28 16,-40 16,-12 35,-12 37,0 73,33 36,33 49,81 3,10 6,11 3,1 16,2 h 4 q 15,0 15,-8 0,-1 -2,-11 Q 486,77 440,33 394,-11 333,-11 263,-11 227,52 186,-10 133,-10 h -6 q -49,0 -70,26 -21,26 -22,55 0,32 19,52 19,20 45,20 43,0 43,-42 Q 142,81 130,66 118,51 107,46 96,41 94,41 l -3,-1 q 0,-1 6,-4 6,-3 16,-7 10,-4 19,-3 36,0 62,45 9,16 23,68 14,52 28,108 14,56 16,66 5,27 5,39 0,28 -15,40 -15,12 -34,12 -40,0 -75,-32 -35,-32 -49,-82 -2,-9 -5,-10 -3,-1 -16,-2 H 58 q -6,6 -6,11 z" />
    <path
       style="stroke-width:1"
       id="MJMAIN-3D"
       d="m 56,347 q 0,13 14,20 h 637 q 15,-8 15,-20 0,-11 -14,-19 L 390,327 H 72 q -16,5 -16,20 z m 0,-194 q 0,15 16,20 h 636 q 14,-10 14,-20 0,-13 -15,-20 H 70 q -14,7 -14,20 z" />
    <path
       style="stroke-width:1"
       id="MJMAIN-73"
       d="m 295,316 q 0,40 -27,69 -27,29 -78,29 -36,0 -62,-13 -30,-19 -30,-52 -1,-5 0,-13 1,-8 16,-24 15,-16 43,-25 18,-5 44,-9 26,-4 44,-9 18,-5 32,-13 17,-8 33,-20 16,-12 32,-41 16,-29 17,-62 Q 359,71 321,31 283,-9 198,-10 h -8 q -52,0 -96,36 L 86,19 77,10 Q 71,4 65,-1 L 54,-11 h -8 -4 q -3,0 -9,6 v 79 58 q 0,21 2,25 2,4 10,5 h 9 q 12,0 16,-4 4,-4 5,-12 1,-8 7,-27 6,-19 19,-42 35,-51 97,-51 97,0 97,78 0,29 -18,47 -20,24 -83,36 -63,12 -83,23 -36,17 -57,46 -21,29 -21,62 0,39 17,66 17,27 43,40 26,13 50,18 24,5 44,5 h 11 q 40,0 70,-15 l 15,-8 9,7 q 10,9 22,17 h 8 4 q 3,0 9,-6 V 310 l -6,-6 h -28 q -6,6 -6,12 z" />
    <path
       style="stroke-width:1"
       id="MJMAIN-69"
       d="m 69,609 q 0,28 18,44 18,16 44,16 23,-2 40,-17 17,-15 17,-43 0,-30 -17,-45 -17,-15 -42,-15 -25,0 -42,15 -17,15 -18,45 z M 247,0 Q 232,3 143,3 132,3 106,3 80,3 56,1 L 34,0 h -8 v 46 h 16 q 28,0 49,3 9,4 11,11 2,7 2,42 v 103 88 q 0,52 -2,66 -2,14 -14,19 -14,7 -47,7 H 30 v 23 q 0,23 2,23 l 10,1 q 10,1 28,2 18,1 36,2 17,1 36,2 19,1 29,3 10,2 11,1 h 3 V 62 q 5,-10 12,-12 7,-2 35,-4 h 23 V 0 Z" />
    <path
       style="stroke-width:1"
       id="MJMAIN-6E"
       d="m 41,46 h 14 q 39,0 47,14 v 8 q 0,9 0,23 0,14 0,31 0,17 1,39 1,22 0,42 0,31 0,66 0,35 -1,59 v 23 q -3,19 -14,25 -11,6 -45,9 H 25 v 23 q 0,23 2,23 l 10,1 q 10,1 28,2 18,1 37,2 17,1 36,2 19,1 29,3 10,2 11,1 h 3 v -40 q 0,-38 1,-38 1,0 5,5 4,5 12,15 8,10 19,18 11,8 29,19 18,11 38,16 20,5 51,5 114,-4 127,-113 1,-7 1,-139 v -86 q 0,-38 2,-45 2,-7 11,-10 21,-3 49,-3 h 16 V 0 h -8 L 510,1 Q 487,2 460,2 433,2 422,3 319,3 310,0 h -8 v 46 h 16 q 61,0 61,16 1,2 1,138 -1,135 -2,143 -6,28 -20,42 -14,14 -24,17 -10,3 -26,2 -45,0 -79,-34 -27,-27 -34,-55 -7,-28 -8,-83 v -64 -60 q 0,-30 1,-40 1,-10 3,-13 2,-3 9,-6 21,-3 49,-3 h 16 V 0 h -8 L 234,1 Q 210,2 183,2 156,2 145,3 42,3 33,0 h -8 v 46 z" />
    <path
       style="stroke-width:1"
       id="MJMATHI-3C0"
       d="m 132,-11 q -34,0 -34,33 v 11 l 13,28 q 75,158 109,273 l 8,24 h -32 q -38,0 -54,-3 -16,-3 -39,-19 -11,-7 -22,-18 -11,-11 -19,-21 -8,-10 -9,-12 -2,-1 -15,-1 -19,0 -19,10 0,6 19,35 19,29 55,62 36,33 71,38 7,2 225,2 160,0 164,-1 20,-7 20,-28 0,-31 -32,-42 -6,-2 -69,-2 h -64 l -3,-17 q -12,-72 -12,-119 0,-52 9,-93 9,-41 19,-64 10,-23 10,-28 0,-17 -14,-32 -14,-15 -36,-15 -11,0 -18,3 -7,3 -16,24 -9,21 -16,60 -1,9 -1,44 0,49 9,105 9,56 18,92 9,36 10,40 h -98 l -1,-4 q 0,-3 -19,-79 Q 230,199 206,114 182,29 175,17 164,-11 132,-11 Z" />
    <path
       style="stroke-width:1"
       id="MJSZ2-222B"
       d="m 114,-798 q 18,-26 51,-26 h 2 q 28,0 56,60 28,60 52,164 24,104 45,209 21,105 42,227 3,21 5,31 72,425 156,788 84,363 122,472 6,18 10,30 4,12 17,44 13,32 27,56 14,24 34,49 20,25 44,40 24,15 51,14 56,0 84,-35 28,-35 32,-80 0,-25 -12,-40 -12,-15 -23,-19 -11,-4 -22,-3 -21,0 -38,15 -17,15 -17,41 0,48 53,57 l -3,4 q -3,3 -8,7 -5,4 -8,6 -15,10 -33,10 -14,0 -26,-12 -12,-12 -32,-56 -20,-44 -39,-116 Q 717,1067 689,936 661,805 633,628 574,293 510,-5 446,-303 410,-437 374,-571 355,-629 278,-862 165,-862 q -40,0 -73,31 -33,31 -37,85 0,35 19,48 19,13 38,13 21,0 38,-15 17,-15 17,-41 0,-48 -53,-57 z" />
    <path
       style="stroke-width:1"
       id="MJMAIN-2B"
       d="m 56,237 q 0,0 0,13 0,13 14,20 h 299 v 150 l 1,150 q 10,13 19,13 13,0 20,-15 V 270 h 298 q 15,-8 15,-20 0,-12 -15,-20 H 409 V -68 q -8,-14 -18,-14 h -2 -2 q -12,0 -18,14 V 230 H 70 q -14,7 -14,20 z" />
    <path
       style="stroke-width:1"
       id="MJMAIN-66"
       d="M 273,0 Q 255,3 146,3 43,3 34,0 h -8 v 46 h 16 q 28,0 49,3 8,3 12,11 1,2 1,164 V 385 H 33 v 46 h 71 v 66 l 1,67 2,10 q 19,65 64,94 45,29 95,36 1,0 9,0 8,0 14,1 41,-3 62,-26 21,-23 21,-52 0,-23 -14,-37 -14,-14 -37,-14 -23,0 -37,14 -14,14 -14,37 0,20 18,40 h -4 q -4,1 -11,1 -28,0 -50,-21 -22,-21 -34,-55 -6,-20 -7,-95 V 431 H 293 V 385 H 185 V 225 q 0,-162 1,-164 1,-2 3,-4 2,-2 5,-3 3,-1 5,-3 2,-2 7,-2 5,0 7,-1 2,-1 9,-1 7,0 9,0 2,0 10,-1 8,-1 10,0 h 31 V 0 Z" />
    <path
       style="stroke-width:1"
       id="MJMAIN-30"
       d="m 96,585 q 56,81 153,81 48,0 96,-26 48,-26 78,-92 37,-83 37,-228 0,-155 -43,-237 -20,-42 -55,-67 -35,-25 -61,-31 -26,-6 -51,-7 -26,0 -52,6 -26,6 -61,32 -35,26 -55,67 -43,82 -43,237 0,174 57,265 z m 225,12 q -30,32 -71,32 -42,0 -72,-32 -25,-26 -33,-72 -8,-46 -8,-192 0,-158 8,-208 8,-50 36,-79 28,-30 69,-30 40,0 68,30 29,30 36,84 7,54 8,203 0,145 -8,191 -8,46 -33,73 z" />
    <path
       style="stroke-width:1"
       id="MJMAIN-65"
       d="m 28,218 q 0,55 20,100 20,45 50,73 30,28 65,42 35,14 66,15 53,0 91,-18 38,-18 58,-50 20,-32 28,-64 8,-32 9,-71 0,-7 -7,-14 H 126 v -15 q 0,-148 100,-180 20,-6 44,-6 42,0 72,32 17,17 27,42 l 10,24 q 3,3 16,3 h 3 q 17,0 17,-10 0,-4 -3,-13 Q 393,53 349,21 305,-11 250,-11 155,-11 92,58 29,127 28,218 Z m 305,57 q -11,128 -95,136 h -2 q -8,0 -16,-1 -8,-1 -25,-8 -17,-7 -29,-21 -12,-14 -23,-41 -11,-27 -16,-66 v -7 h 206 z" />
    <path
       style="stroke-width:1"
       id="MJMAIN-78"
       d="M 201,0 Q 189,3 102,3 26,3 17,0 h -6 v 46 h 14 q 23,1 42,6 19,5 29,9 10,4 25,17 15,13 18,18 3,5 21,26 18,21 20,28 l 46,60 -58,78 q -9,13 -19,27 -10,14 -16,21 -6,7 -11,15 -5,8 -9,12 -4,4 -6,7 -2,3 -7,6 -5,3 -6,3 -1,0 -6,2 -5,2 -8,2 -6,0 -36,2 H 16 v 46 h 7 q 36,-2 103,-2 93,0 103,2 h 8 v -46 q -36,-4 -36,-16 0,-2 10,-16 10,-14 28,-38 18,-24 29,-41 l 4,-4 25,34 q 32,41 32,54 0,6 -2,11 -2,5 -5,7 -3,2 -5,4 -2,2 -7,4 l -3,1 h -5 v 46 h 7 q 15,-3 99,-3 79,0 85,3 h 6 v -46 h -7 q -49,0 -81,-17 -17,-8 -34,-27 -17,-19 -65,-84 l -16,-21 62,-85 q 66,-90 71,-94 5,-4 17,-7 18,-4 53,-4 h 17 V 0 h -6 -8 Q 494,1 482,1 470,1 457,2 444,3 432,2 420,1 414,3 403,3 377,3 351,3 327,1 L 304,0 h -9 v 46 h 3 q 11,0 22,5 11,5 11,12 0,2 -40,57 l -41,55 q -1,-1 -31,-42 -30,-41 -34,-45 -4,-5 -4,-14 0,-11 7,-19 7,-8 18,-9 2,0 2,-23 V 0 Z" />
    <path
       style="stroke-width:1"
       id="MJMAIN-70"
       d="m 36,-148 h 14 q 39,0 47,14 v 8 q 0,7 0,19 0,12 0,30 0,18 1,39 1,21 0,44 -1,23 0,49 1,26 0,51 0,34 0,71 0,37 0,66 0,29 0,53 0,24 -1,39 -1,15 0,16 -3,19 -14,25 -11,6 -45,9 H 20 v 23 q 0,23 2,23 l 10,1 q 10,1 29,2 19,1 37,2 17,1 37,2 20,1 30,3 10,2 11,1 h 3 v -26 l 1,-26 8,7 q 59,44 138,44 81,0 138,-64 57,-64 58,-161 0,-101 -65,-164 -65,-63 -147,-63 -68,0 -120,44 l -8,7 v -85 -56 q 0,-27 2,-33 2,-6 11,-11 21,-3 49,-3 h 16 v -46 h -8 l -24,1 q -23,1 -50,1 -27,0 -38,1 -103,0 -112,-3 h -8 v 46 z m 388,366 q 0,74 -34,129 -34,55 -85,55 -71,0 -123,-65 V 98 q 40,-72 112,-72 51,0 90,54 39,54 40,138 z" />
    <path
       style="stroke-width:1"
       id="MJMAIN-28"
       d="m 94,250 q 0,69 10,131 10,62 23,107 13,45 37,88 24,43 38,67 14,24 42,52 28,28 33,34 5,6 25,21 h 13 4 q 14,0 14,-9 0,-3 -17,-21 -17,-18 -41,-53 -24,-35 -49,-86 -25,-51 -42,-138 -17,-87 -17,-193 0,-106 17,-192 17,-86 41,-139 24,-53 49,-86 25,-33 42,-53 17,-20 17,-21 0,-9 -15,-9 h -3 -13 l -28,24 Q 180,-141 137,-14 94,113 94,250 Z" />
    <path
       style="stroke-width:1"
       id="MJMAIN-2212"
       d="m 84,237 q 0,0 0,13 0,13 14,20 h 581 q 15,-8 15,-20 0,-12 -15,-20 H 98 q -14,7 -14,20 z" />
    <path
       style="stroke-width:1"
       id="MJMAIN-29"
       d="m 60,749 4,1 q 5,0 10,0 h 12 l 28,-24 q 94,-85 137,-212 43,-127 43,-264 0,-68 -10,-131 -10,-63 -23,-107 -13,-44 -37,-88 -24,-44 -38,-67 -14,-23 -41,-51 -27,-28 -32,-33 -5,-5 -23,-19 -3,-3 -4,-4 H 74 q -8,0 -11,0 -3,0 -5,3 -2,3 -3,9 1,1 11,13 155,161 155,475 0,314 -155,475 -10,12 -11,13 0,8 5,11 z" />
    <path
       style="stroke-width:1"
       id="MJMATHI-64"
       d="m 366,683 q 1,0 72,5 71,5 73,6 12,0 12,-8 0,-7 -73,-302 -73,-295 -75,-301 -2,-6 -1,-15 0,-42 28,-42 9,1 20,9 21,20 41,96 6,20 10,21 2,1 10,1 h 4 4 q 15,0 15,-8 0,-5 -3,-16 Q 490,79 473,48 456,17 445,8 434,-1 417,-8 q -8,-2 -24,-2 -34,0 -57,15 -23,15 -30,31 l -6,15 q -1,1 -4,-1 -2,-2 -4,-4 -59,-56 -120,-56 -55,0 -97,40 -42,40 -42,127 0,48 20,98 20,50 48,86 47,57 94,79 47,22 85,22 56,0 84,-42 5,-6 5,-4 1,4 27,109 26,105 28,111 0,13 -7,16 -7,3 -39,5 h -21 q -6,6 -6,8 0,2 2,19 5,19 13,19 z M 352,326 q -23,79 -75,79 -35,0 -67,-31 -32,-31 -50,-81 -29,-79 -41,-164 0,-3 0,-11 0,-8 -1,-12 0,-45 18,-62 18,-17 43,-18 54,0 111,72 l 8,11 z" />
    <path
       style="stroke-width:1"
       id="MJMAIN-221E"
       d="m 55,217 q 0,88 56,156 56,68 143,69 88,0 165,-61 38,-31 74,-78 l 14,-19 7,10 q 104,148 233,148 86,0 141,-68 55,-68 56,-160 0,-86 -55,-155 -55,-69 -146,-70 -86,0 -163,61 -38,31 -74,78 l -14,19 -7,-10 Q 381,-11 252,-11 166,-11 111,57 56,125 55,217 Z m 852,0 q 0,68 -38,124 -38,56 -108,56 -21,0 -41,-5 -20,-5 -38,-14 -18,-9 -34,-19 -16,-10 -29,-24 -13,-14 -25,-25 -12,-11 -20,-25 -8,-14 -15,-22 -7,-8 -11,-17 l -5,-8 31,-40 q 31,-40 48,-60 17,-20 42,-44 25,-24 50,-33 25,-9 51,-10 62,0 102,49 40,49 40,117 z M 92,214 q 0,-69 39,-125 39,-56 108,-56 118,0 217,160 l -31,40 q -61,79 -91,104 -49,43 -101,43 -62,0 -101,-49 Q 93,282 92,214 Z" />
    <linearGradient
       id="gradientFill-1"
       x1="0"
       x2="1"
       y1="0"
       y2="1"
       gradientUnits="objectBoundingBox"
       spreadMethod="pad">
      <stop
         offset="0"
         stop-color="rgb(203,206,208)"
         stop-opacity="1"
         id="stop6145" />
      <stop
         offset="1"
         stop-color="rgb(132,131,139)"
         stop-opacity="1"
         id="stop6147" />
    </linearGradient>
    <linearGradient
       id="gradientFill-2"
       x1="0"
       x2="1"
       y1="0"
       y2="1"
       gradientUnits="objectBoundingBox"
       spreadMethod="pad">
      <stop
         offset="0"
         stop-color="rgb(39,109,195)"
         stop-opacity="1"
         id="stop6150" />
      <stop
         offset="1"
         stop-color="rgb(22,92,170)"
         stop-opacity="1"
         id="stop6152" />
    </linearGradient>
    <path
       style="stroke-width:1"
       id="MJMATHI-78-5"
       d="m 52,289 q 7,42 54,97 47,55 116,56 35,0 64,-18 29,-18 43,-45 42,63 101,63 37,0 64,-22 27,-22 28,-59 0,-29 -14,-47 -14,-18 -27,-22 -13,-4 -23,-4 -19,0 -31,11 -12,11 -12,29 0,46 50,63 -11,13 -40,13 -13,0 -19,-2 -38,-16 -56,-66 -60,-221 -60,-258 0,-28 16,-40 16,-12 35,-12 37,0 73,33 36,33 49,81 3,10 6,11 3,1 16,2 h 4 q 15,0 15,-8 0,-1 -2,-11 Q 486,77 440,33 394,-11 333,-11 263,-11 227,52 186,-10 133,-10 h -6 q -49,0 -70,26 -21,26 -22,55 0,32 19,52 19,20 45,20 43,0 43,-42 Q 142,81 130,66 118,51 107,46 96,41 94,41 l -3,-1 q 0,-1 6,-4 6,-3 16,-7 10,-4 19,-3 36,0 62,45 9,16 23,68 14,52 28,108 14,56 16,66 5,27 5,39 0,28 -15,40 -15,12 -34,12 -40,0 -75,-32 -35,-32 -49,-82 -2,-9 -5,-10 -3,-1 -16,-2 H 58 q -6,6 -6,11 z" />
    <path
       style="stroke-width:1"
       id="MJMAIN-3D-5"
       d="m 56,347 q 0,13 14,20 h 637 q 15,-8 15,-20 0,-11 -14,-19 L 390,327 H 72 q -16,5 -16,20 z m 0,-194 q 0,15 16,20 h 636 q 14,-10 14,-20 0,-13 -15,-20 H 70 q -14,7 -14,20 z" />
    <path
       style="stroke-width:1"
       id="MJMAIN-73-2"
       d="m 295,316 q 0,40 -27,69 -27,29 -78,29 -36,0 -62,-13 -30,-19 -30,-52 -1,-5 0,-13 1,-8 16,-24 15,-16 43,-25 18,-5 44,-9 26,-4 44,-9 18,-5 32,-13 17,-8 33,-20 16,-12 32,-41 16,-29 17,-62 Q 359,71 321,31 283,-9 198,-10 h -8 q -52,0 -96,36 L 86,19 77,10 Q 71,4 65,-1 L 54,-11 h -8 -4 q -3,0 -9,6 v 79 58 q 0,21 2,25 2,4 10,5 h 9 q 12,0 16,-4 4,-4 5,-12 1,-8 7,-27 6,-19 19,-42 35,-51 97,-51 97,0 97,78 0,29 -18,47 -20,24 -83,36 -63,12 -83,23 -36,17 -57,46 -21,29 -21,62 0,39 17,66 17,27 43,40 26,13 50,18 24,5 44,5 h 11 q 40,0 70,-15 l 15,-8 9,7 q 10,9 22,17 h 8 4 q 3,0 9,-6 V 310 l -6,-6 h -28 q -6,6 -6,12 z" />
    <path
       style="stroke-width:1"
       id="MJMAIN-69-8"
       d="m 69,609 q 0,28 18,44 18,16 44,16 23,-2 40,-17 17,-15 17,-43 0,-30 -17,-45 -17,-15 -42,-15 -25,0 -42,15 -17,15 -18,45 z M 247,0 Q 232,3 143,3 132,3 106,3 80,3 56,1 L 34,0 h -8 v 46 h 16 q 28,0 49,3 9,4 11,11 2,7 2,42 v 103 88 q 0,52 -2,66 -2,14 -14,19 -14,7 -47,7 H 30 v 23 q 0,23 2,23 l 10,1 q 10,1 28,2 18,1 36,2 17,1 36,2 19,1 29,3 10,2 11,1 h 3 V 62 q 5,-10 12,-12 7,-2 35,-4 h 23 V 0 Z" />
    <path
       style="stroke-width:1"
       id="MJMAIN-6E-3"
       d="m 41,46 h 14 q 39,0 47,14 v 8 q 0,9 0,23 0,14 0,31 0,17 1,39 1,22 0,42 0,31 0,66 0,35 -1,59 v 23 q -3,19 -14,25 -11,6 -45,9 H 25 v 23 q 0,23 2,23 l 10,1 q 10,1 28,2 18,1 37,2 17,1 36,2 19,1 29,3 10,2 11,1 h 3 v -40 q 0,-38 1,-38 1,0 5,5 4,5 12,15 8,10 19,18 11,8 29,19 18,11 38,16 20,5 51,5 114,-4 127,-113 1,-7 1,-139 v -86 q 0,-38 2,-45 2,-7 11,-10 21,-3 49,-3 h 16 V 0 h -8 L 510,1 Q 487,2 460,2 433,2 422,3 319,3 310,0 h -8 v 46 h 16 q 61,0 61,16 1,2 1,138 -1,135 -2,143 -6,28 -20,42 -14,14 -24,17 -10,3 -26,2 -45,0 -79,-34 -27,-27 -34,-55 -7,-28 -8,-83 v -64 -60 q 0,-30 1,-40 1,-10 3,-13 2,-3 9,-6 21,-3 49,-3 h 16 V 0 h -8 L 234,1 Q 210,2 183,2 156,2 145,3 42,3 33,0 h -8 v 46 z" />
    <path
       style="stroke-width:1"
       id="MJMATHI-3C0-1"
       d="m 132,-11 q -34,0 -34,33 v 11 l 13,28 q 75,158 109,273 l 8,24 h -32 q -38,0 -54,-3 -16,-3 -39,-19 -11,-7 -22,-18 -11,-11 -19,-21 -8,-10 -9,-12 -2,-1 -15,-1 -19,0 -19,10 0,6 19,35 19,29 55,62 36,33 71,38 7,2 225,2 160,0 164,-1 20,-7 20,-28 0,-31 -32,-42 -6,-2 -69,-2 h -64 l -3,-17 q -12,-72 -12,-119 0,-52 9,-93 9,-41 19,-64 10,-23 10,-28 0,-17 -14,-32 -14,-15 -36,-15 -11,0 -18,3 -7,3 -16,24 -9,21 -16,60 -1,9 -1,44 0,49 9,105 9,56 18,92 9,36 10,40 h -98 l -1,-4 q 0,-3 -19,-79 Q 230,199 206,114 182,29 175,17 164,-11 132,-11 Z" />
    <path
       style="stroke-width:1"
       id="MJSZ2-222B-8"
       d="m 114,-798 q 18,-26 51,-26 h 2 q 28,0 56,60 28,60 52,164 24,104 45,209 21,105 42,227 3,21 5,31 72,425 156,788 84,363 122,472 6,18 10,30 4,12 17,44 13,32 27,56 14,24 34,49 20,25 44,40 24,15 51,14 56,0 84,-35 28,-35 32,-80 0,-25 -12,-40 -12,-15 -23,-19 -11,-4 -22,-3 -21,0 -38,15 -17,15 -17,41 0,48 53,57 l -3,4 q -3,3 -8,7 -5,4 -8,6 -15,10 -33,10 -14,0 -26,-12 -12,-12 -32,-56 -20,-44 -39,-116 Q 717,1067 689,936 661,805 633,628 574,293 510,-5 446,-303 410,-437 374,-571 355,-629 278,-862 165,-862 q -40,0 -73,31 -33,31 -37,85 0,35 19,48 19,13 38,13 21,0 38,-15 17,-15 17,-41 0,-48 -53,-57 z" />
    <path
       style="stroke-width:1"
       id="MJMAIN-2B-2"
       d="m 56,237 q 0,0 0,13 0,13 14,20 h 299 v 150 l 1,150 q 10,13 19,13 13,0 20,-15 V 270 h 298 q 15,-8 15,-20 0,-12 -15,-20 H 409 V -68 q -8,-14 -18,-14 h -2 -2 q -12,0 -18,14 V 230 H 70 q -14,7 -14,20 z" />
    <path
       style="stroke-width:1"
       id="MJMAIN-66-7"
       d="M 273,0 Q 255,3 146,3 43,3 34,0 h -8 v 46 h 16 q 28,0 49,3 8,3 12,11 1,2 1,164 V 385 H 33 v 46 h 71 v 66 l 1,67 2,10 q 19,65 64,94 45,29 95,36 1,0 9,0 8,0 14,1 41,-3 62,-26 21,-23 21,-52 0,-23 -14,-37 -14,-14 -37,-14 -23,0 -37,14 -14,14 -14,37 0,20 18,40 h -4 q -4,1 -11,1 -28,0 -50,-21 -22,-21 -34,-55 -6,-20 -7,-95 V 431 H 293 V 385 H 185 V 225 q 0,-162 1,-164 1,-2 3,-4 2,-2 5,-3 3,-1 5,-3 2,-2 7,-2 5,0 7,-1 2,-1 9,-1 7,0 9,0 2,0 10,-1 8,-1 10,0 h 31 V 0 Z" />
    <path
       style="stroke-width:1"
       id="MJMAIN-30-0"
       d="m 96,585 q 56,81 153,81 48,0 96,-26 48,-26 78,-92 37,-83 37,-228 0,-155 -43,-237 -20,-42 -55,-67 -35,-25 -61,-31 -26,-6 -51,-7 -26,0 -52,6 -26,6 -61,32 -35,26 -55,67 -43,82 -43,237 0,174 57,265 z m 225,12 q -30,32 -71,32 -42,0 -72,-32 -25,-26 -33,-72 -8,-46 -8,-192 0,-158 8,-208 8,-50 36,-79 28,-30 69,-30 40,0 68,30 29,30 36,84 7,54 8,203 0,145 -8,191 -8,46 -33,73 z" />
    <path
       style="stroke-width:1"
       id="MJMAIN-65-5"
       d="m 28,218 q 0,55 20,100 20,45 50,73 30,28 65,42 35,14 66,15 53,0 91,-18 38,-18 58,-50 20,-32 28,-64 8,-32 9,-71 0,-7 -7,-14 H 126 v -15 q 0,-148 100,-180 20,-6 44,-6 42,0 72,32 17,17 27,42 l 10,24 q 3,3 16,3 h 3 q 17,0 17,-10 0,-4 -3,-13 Q 393,53 349,21 305,-11 250,-11 155,-11 92,58 29,127 28,218 Z m 305,57 q -11,128 -95,136 h -2 q -8,0 -16,-1 -8,-1 -25,-8 -17,-7 -29,-21 -12,-14 -23,-41 -11,-27 -16,-66 v -7 h 206 z" />
    <path
       style="stroke-width:1"
       id="MJMAIN-78-2"
       d="M 201,0 Q 189,3 102,3 26,3 17,0 h -6 v 46 h 14 q 23,1 42,6 19,5 29,9 10,4 25,17 15,13 18,18 3,5 21,26 18,21 20,28 l 46,60 -58,78 q -9,13 -19,27 -10,14 -16,21 -6,7 -11,15 -5,8 -9,12 -4,4 -6,7 -2,3 -7,6 -5,3 -6,3 -1,0 -6,2 -5,2 -8,2 -6,0 -36,2 H 16 v 46 h 7 q 36,-2 103,-2 93,0 103,2 h 8 v -46 q -36,-4 -36,-16 0,-2 10,-16 10,-14 28,-38 18,-24 29,-41 l 4,-4 25,34 q 32,41 32,54 0,6 -2,11 -2,5 -5,7 -3,2 -5,4 -2,2 -7,4 l -3,1 h -5 v 46 h 7 q 15,-3 99,-3 79,0 85,3 h 6 v -46 h -7 q -49,0 -81,-17 -17,-8 -34,-27 -17,-19 -65,-84 l -16,-21 62,-85 q 66,-90 71,-94 5,-4 17,-7 18,-4 53,-4 h 17 V 0 h -6 -8 Q 494,1 482,1 470,1 457,2 444,3 432,2 420,1 414,3 403,3 377,3 351,3 327,1 L 304,0 h -9 v 46 h 3 q 11,0 22,5 11,5 11,12 0,2 -40,57 l -41,55 q -1,-1 -31,-42 -30,-41 -34,-45 -4,-5 -4,-14 0,-11 7,-19 7,-8 18,-9 2,0 2,-23 V 0 Z" />
    <path
       style="stroke-width:1"
       id="MJMAIN-70-6"
       d="m 36,-148 h 14 q 39,0 47,14 v 8 q 0,7 0,19 0,12 0,30 0,18 1,39 1,21 0,44 -1,23 0,49 1,26 0,51 0,34 0,71 0,37 0,66 0,29 0,53 0,24 -1,39 -1,15 0,16 -3,19 -14,25 -11,6 -45,9 H 20 v 23 q 0,23 2,23 l 10,1 q 10,1 29,2 19,1 37,2 17,1 37,2 20,1 30,3 10,2 11,1 h 3 v -26 l 1,-26 8,7 q 59,44 138,44 81,0 138,-64 57,-64 58,-161 0,-101 -65,-164 -65,-63 -147,-63 -68,0 -120,44 l -8,7 v -85 -56 q 0,-27 2,-33 2,-6 11,-11 21,-3 49,-3 h 16 v -46 h -8 l -24,1 q -23,1 -50,1 -27,0 -38,1 -103,0 -112,-3 h -8 v 46 z m 388,366 q 0,74 -34,129 -34,55 -85,55 -71,0 -123,-65 V 98 q 40,-72 112,-72 51,0 90,54 39,54 40,138 z" />
    <path
       style="stroke-width:1"
       id="MJMAIN-28-1"
       d="m 94,250 q 0,69 10,131 10,62 23,107 13,45 37,88 24,43 38,67 14,24 42,52 28,28 33,34 5,6 25,21 h 13 4 q 14,0 14,-9 0,-3 -17,-21 -17,-18 -41,-53 -24,-35 -49,-86 -25,-51 -42,-138 -17,-87 -17,-193 0,-106 17,-192 17,-86 41,-139 24,-53 49,-86 25,-33 42,-53 17,-20 17,-21 0,-9 -15,-9 h -3 -13 l -28,24 Q 180,-141 137,-14 94,113 94,250 Z" />
    <path
       style="stroke-width:1"
       id="MJMAIN-2212-1"
       d="m 84,237 q 0,0 0,13 0,13 14,20 h 581 q 15,-8 15,-20 0,-12 -15,-20 H 98 q -14,7 -14,20 z" />
    <path
       style="stroke-width:1"
       id="MJMAIN-29-7"
       d="m 60,749 4,1 q 5,0 10,0 h 12 l 28,-24 q 94,-85 137,-212 43,-127 43,-264 0,-68 -10,-131 -10,-63 -23,-107 -13,-44 -37,-88 -24,-44 -38,-67 -14,-23 -41,-51 -27,-28 -32,-33 -5,-5 -23,-19 -3,-3 -4,-4 H 74 q -8,0 -11,0 -3,0 -5,3 -2,3 -3,9 1,1 11,13 155,161 155,475 0,314 -155,475 -10,12 -11,13 0,8 5,11 z" />
    <path
       style="stroke-width:1"
       id="MJMATHI-64-8"
       d="m 366,683 q 1,0 72,5 71,5 73,6 12,0 12,-8 0,-7 -73,-302 -73,-295 -75,-301 -2,-6 -1,-15 0,-42 28,-42 9,1 20,9 21,20 41,96 6,20 10,21 2,1 10,1 h 4 4 q 15,0 15,-8 0,-5 -3,-16 Q 490,79 473,48 456,17 445,8 434,-1 417,-8 q -8,-2 -24,-2 -34,0 -57,15 -23,15 -30,31 l -6,15 q -1,1 -4,-1 -2,-2 -4,-4 -59,-56 -120,-56 -55,0 -97,40 -42,40 -42,127 0,48 20,98 20,50 48,86 47,57 94,79 47,22 85,22 56,0 84,-42 5,-6 5,-4 1,4 27,109 26,105 28,111 0,13 -7,16 -7,3 -39,5 h -21 q -6,6 -6,8 0,2 2,19 5,19 13,19 z M 352,326 q -23,79 -75,79 -35,0 -67,-31 -32,-31 -50,-81 -29,-79 -41,-164 0,-3 0,-11 0,-8 -1,-12 0,-45 18,-62 18,-17 43,-18 54,0 111,72 l 8,11 z" />
    <path
       style="stroke-width:1"
       id="MJMAIN-221E-8"
       d="m 55,217 q 0,88 56,156 56,68 143,69 88,0 165,-61 38,-31 74,-78 l 14,-19 7,10 q 104,148 233,148 86,0 141,-68 55,-68 56,-160 0,-86 -55,-155 -55,-69 -146,-70 -86,0 -163,61 -38,31 -74,78 l -14,19 -7,-10 Q 381,-11 252,-11 166,-11 111,57 56,125 55,217 Z m 852,0 q 0,68 -38,124 -38,56 -108,56 -21,0 -41,-5 -20,-5 -38,-14 -18,-9 -34,-19 -16,-10 -29,-24 -13,-14 -25,-25 -12,-11 -20,-25 -8,-14 -15,-22 -7,-8 -11,-17 l -5,-8 31,-40 q 31,-40 48,-60 17,-20 42,-44 25,-24 50,-33 25,-9 51,-10 62,0 102,49 40,49 40,117 z M 92,214 q 0,-69 39,-125 39,-56 108,-56 118,0 217,160 l -31,40 q -61,79 -91,104 -49,43 -101,43 -62,0 -101,-49 Q 93,282 92,214 Z" />
  </defs>
  <metadata
     id="metadata7">
    <rdf:RDF>
      <cc:Work
         rdf:about="">
        <dc:format>image/svg+xml</dc:format>
        <dc:type
           rdf:resource="http://purl.org/dc/dcmitype/StillImage" />
        <dc:title />
      </cc:Work>
    </rdf:RDF>
  </metadata>
  <polygon
     transform="matrix(-0.59249822,0,0,-0.59249822,113.81431,109.2497)"
     style="fill:#003865;fill-opacity:1;stroke:#ffffff;stroke-width:2.49958563;stroke-miterlimit:4;stroke-dasharray:none;stroke-opacity:1"
     points="52,183.13844 4,100 52,16.861561 148,16.861561 196,100 148,183.13844 "
     id="polygon4203" />
  <g
     id="g1063"
     transform="translate(0.37159937,0.38878684)">
    <g
       style="fill:#ffffff"
       transform="matrix(0.11430191,0.02751693,-0.02751693,0.11430191,55.301627,36.426482)"
       id="g1087">
      <g
         style="fill:#ffffff"
         id="g1029">
        <g
           style="fill:#ffffff"
           id="g1027">
          <g
             style="fill:#ffffff"
             id="g1025">
            <path
               style="fill:#ffffff"
               d="m 293.629,127.806 -5.795,-13.739 c 19.846,-44.856 18.53,-46.189 14.676,-50.08 l -25.353,-24.77 -2.516,-2.12 h -2.937 c -1.549,0 -6.173,0 -44.712,17.48 L 212.808,48.858 C 194.476,3.414 192.596,3.414 187.228,3.414 h -35.765 c -5.362,0 -7.446,-0.006 -24.448,45.606 l -14.123,5.734 C 86.848,43.757 71.574,38.19 67.452,38.19 l -3.381,0.105 -27.27,26.737 c -4.138,3.891 -5.582,5.263 15.402,49.425 l -5.774,13.691 C 0,146.097 0,147.838 0,153.33 v 35.068 c 0,5.501 0,7.44 46.585,24.127 l 5.773,13.667 c -19.843,44.832 -18.51,46.178 -14.655,50.032 l 25.353,24.8 2.522,2.168 h 2.951 c 1.525,0 6.092,0 44.685,-17.516 l 14.159,5.758 c 18.335,45.438 20.218,45.427 25.598,45.427 h 35.771 c 5.47,0 7.41,0 24.463,-45.589 l 14.195,-5.74 c 26.014,11 41.253,16.585 45.349,16.585 l 3.404,-0.096 27.479,-26.901 c 3.909,-3.945 5.278,-5.309 -15.589,-49.288 l 5.734,-13.702 c 46.496,-17.967 46.496,-19.853 46.496,-25.221 V 151.88 c -0.005,-5.519 -0.005,-7.446 -46.644,-24.074 z M 170.128,228.474 c -32.798,0 -59.504,-26.187 -59.504,-58.364 0,-32.153 26.707,-58.315 59.504,-58.315 32.78,0 59.43,26.168 59.43,58.315 -0.006,32.177 -26.656,58.364 -59.43,58.364 z"
               id="path1023"
               inkscape:connector-curvature="0" />
          </g>
        </g>
      </g>
      <g
         style="fill:#ffffff"
         id="g1031" />
      <g
         style="fill:#ffffff"
         id="g1033" />
      <g
         style="fill:#ffffff"
         id="g1035" />
      <g
         style="fill:#ffffff"
         id="g1037" />
      <g
         style="fill:#ffffff"
         id="g1039" />
      <g
         style="fill:#ffffff"
         id="g1041" />
      <g
         style="fill:#ffffff"
         id="g1043" />
      <g
         style="fill:#ffffff"
         id="g1045" />
      <g
         style="fill:#ffffff"
         id="g1047" />
      <g
         style="fill:#ffffff"
         id="g1049" />
      <g
         style="fill:#ffffff"
         id="g1051" />
      <g
         style="fill:#ffffff"
         id="g1053" />
      <g
         style="fill:#ffffff"
         id="g1055" />
      <g
         style="fill:#ffffff"
         id="g1057" />
      <g
         style="fill:#ffffff"
         id="g1059" />
    </g>
    <g
       id="g1127"
       transform="matrix(0.09983194,0.06209421,-0.06209421,0.09983194,32.689544,12.245842)"
       style="fill:none;stroke:#ffffff;stroke-width:15.94829082;stroke-miterlimit:4;stroke-dasharray:none">
      <g
         id="g1095"
         style="fill:none;stroke:#ffffff;stroke-width:15.94829082;stroke-miterlimit:4;stroke-dasharray:none">
        <g
           id="g1093"
           style="fill:none;stroke:#ffffff;stroke-width:15.94829082;stroke-miterlimit:4;stroke-dasharray:none">
          <g
             id="g1091"
             style="fill:none;stroke:#ffffff;stroke-width:15.94829082;stroke-miterlimit:4;stroke-dasharray:none">
            <path
               id="path1089"
               d="m 293.629,127.806 -5.795,-13.739 c 19.846,-44.856 18.53,-46.189 14.676,-50.08 l -25.353,-24.77 -2.516,-2.12 h -2.937 c -1.549,0 -6.173,0 -44.712,17.48 L 212.808,48.858 C 194.476,3.414 192.596,3.414 187.228,3.414 h -35.765 c -5.362,0 -7.446,-0.006 -24.448,45.606 l -14.123,5.734 C 86.848,43.757 71.574,38.19 67.452,38.19 l -3.381,0.105 -27.27,26.737 c -4.138,3.891 -5.582,5.263 15.402,49.425 l -5.774,13.691 C 0,146.097 0,147.838 0,153.33 v 35.068 c 0,5.501 0,7.44 46.585,24.127 l 5.773,13.667 c -19.843,44.832 -18.51,46.178 -14.655,50.032 l 25.353,24.8 2.522,2.168 h 2.951 c 1.525,0 6.092,0 44.685,-17.516 l 14.159,5.758 c 18.335,45.438 20.218,45.427 25.598,45.427 h 35.771 c 5.47,0 7.41,0 24.463,-45.589 l 14.195,-5.74 c 26.014,11 41.253,16.585 45.349,16.585 l 3.404,-0.096 27.479,-26.901 c 3.909,-3.945 5.278,-5.309 -15.589,-49.288 l 5.734,-13.702 c 46.496,-17.967 46.496,-19.853 46.496,-25.221 V 151.88 c -0.005,-5.519 -0.005,-7.446 -46.644,-24.074 z M 170.128,228.474 c -32.798,0 -59.504,-26.187 -59.504,-58.364 0,-32.153 26.707,-58.315 59.504,-58.315 32.78,0 59.43,26.168 59.43,58.315 -0.006,32.177 -26.656,58.364 -59.43,58.364 z"
               style="fill:none;stroke:#ffffff;stroke-width:15.94829082;stroke-miterlimit:4;stroke-dasharray:none"
               inkscape:connector-curvature="0" />
          </g>
        </g>
      </g>
      <g
         id="g1097"
         style="fill:none;stroke:#ffffff;stroke-width:15.94829082;stroke-miterlimit:4;stroke-dasharray:none" />
      <g
         id="g1099"
         style="fill:none;stroke:#ffffff;stroke-width:15.94829082;stroke-miterlimit:4;stroke-dasharray:none" />
      <g
         id="g1101"
         style="fill:none;stroke:#ffffff;stroke-width:15.94829082;stroke-miterlimit:4;stroke-dasharray:none" />
      <g
         id="g1103"
         style="fill:none;stroke:#ffffff;stroke-width:15.94829082;stroke-miterlimit:4;stroke-dasharray:none" />
      <g
         id="g1105"
         style="fill:none;stroke:#ffffff;stroke-width:15.94829082;stroke-miterlimit:4;stroke-dasharray:none" />
      <g
         id="g1107"
         style="fill:none;stroke:#ffffff;stroke-width:15.94829082;stroke-miterlimit:4;stroke-dasharray:none" />
      <g
         id="g1109"
         style="fill:none;stroke:#ffffff;stroke-width:15.94829082;stroke-miterlimit:4;stroke-dasharray:none" />
      <g
         id="g1111"
         style="fill:none;stroke:#ffffff;stroke-width:15.94829082;stroke-miterlimit:4;stroke-dasharray:none" />
      <g
         id="g1113"
         style="fill:none;stroke:#ffffff;stroke-width:15.94829082;stroke-miterlimit:4;stroke-dasharray:none" />
      <g
         id="g1115"
         style="fill:none;stroke:#ffffff;stroke-width:15.94829082;stroke-miterlimit:4;stroke-dasharray:none" />
      <g
         id="g1117"
         style="fill:none;stroke:#ffffff;stroke-width:15.94829082;stroke-miterlimit:4;stroke-dasharray:none" />
      <g
         id="g1119"
         style="fill:none;stroke:#ffffff;stroke-width:15.94829082;stroke-miterlimit:4;stroke-dasharray:none" />
      <g
         id="g1121"
         style="fill:none;stroke:#ffffff;stroke-width:15.94829082;stroke-miterlimit:4;stroke-dasharray:none" />
      <g
         id="g1123"
         style="fill:none;stroke:#ffffff;stroke-width:15.94829082;stroke-miterlimit:4;stroke-dasharray:none" />
      <g
         id="g1125"
         style="fill:none;stroke:#ffffff;stroke-width:15.94829082;stroke-miterlimit:4;stroke-dasharray:none" />
    </g>
  </g>
</svg>
